<mxfile host="app.diagrams.net" modified="2021-03-09T05:45:51.115Z" agent="5.0 (Windows NT 10.0; Win64; x64) AppleWebKit/537.36 (KHTML, like Gecko) Chrome/89.0.4389.82 Safari/537.36" etag="k-JyrHLfml90U0CDMNoh" version="14.4.5" type="github">
  <diagram id="R2lEEEUBdFMjLlhIrx00" name="Page-1">
    <mxGraphModel dx="2881" dy="2289" grid="1" gridSize="10" guides="1" tooltips="1" connect="1" arrows="1" fold="1" page="1" pageScale="1" pageWidth="850" pageHeight="1100" background="none" math="0" shadow="0" extFonts="Permanent Marker^https://fonts.googleapis.com/css?family=Permanent+Marker">
      <root>
        <mxCell id="0" />
        <mxCell id="1" parent="0" />
        <mxCell id="C-vyLk0tnHw3VtMMgP7b-23" value="users" style="shape=table;startSize=30;container=1;collapsible=1;childLayout=tableLayout;fixedRows=1;rowLines=0;fontStyle=1;align=center;resizeLast=1;" parent="1" vertex="1">
          <mxGeometry x="320" y="-190" width="250" height="310" as="geometry">
            <mxRectangle x="120" y="120" width="60" height="30" as="alternateBounds" />
          </mxGeometry>
        </mxCell>
        <mxCell id="C-vyLk0tnHw3VtMMgP7b-24" value="" style="shape=partialRectangle;collapsible=0;dropTarget=0;pointerEvents=0;fillColor=none;points=[[0,0.5],[1,0.5]];portConstraint=eastwest;top=0;left=0;right=0;bottom=1;" parent="C-vyLk0tnHw3VtMMgP7b-23" vertex="1">
          <mxGeometry y="30" width="250" height="30" as="geometry" />
        </mxCell>
        <mxCell id="C-vyLk0tnHw3VtMMgP7b-25" value="PK" style="shape=partialRectangle;overflow=hidden;connectable=0;fillColor=none;top=0;left=0;bottom=0;right=0;fontStyle=1;" parent="C-vyLk0tnHw3VtMMgP7b-24" vertex="1">
          <mxGeometry width="30" height="30" as="geometry" />
        </mxCell>
        <mxCell id="C-vyLk0tnHw3VtMMgP7b-26" value="id BIGINT UNSIGNEDÂ NOT NULL" style="shape=partialRectangle;overflow=hidden;connectable=0;fillColor=none;top=0;left=0;bottom=0;right=0;align=left;spacingLeft=6;fontStyle=5;" parent="C-vyLk0tnHw3VtMMgP7b-24" vertex="1">
          <mxGeometry x="30" width="220" height="30" as="geometry" />
        </mxCell>
        <mxCell id="xltGa2Rw6O9IPXyMZN5Q-17" style="shape=partialRectangle;collapsible=0;dropTarget=0;pointerEvents=0;fillColor=none;points=[[0,0.5],[1,0.5]];portConstraint=eastwest;top=0;left=0;right=0;bottom=0;" parent="C-vyLk0tnHw3VtMMgP7b-23" vertex="1">
          <mxGeometry y="60" width="250" height="30" as="geometry" />
        </mxCell>
        <mxCell id="xltGa2Rw6O9IPXyMZN5Q-18" style="shape=partialRectangle;overflow=hidden;connectable=0;fillColor=none;top=0;left=0;bottom=0;right=0;" parent="xltGa2Rw6O9IPXyMZN5Q-17" vertex="1">
          <mxGeometry width="30" height="30" as="geometry" />
        </mxCell>
        <mxCell id="xltGa2Rw6O9IPXyMZN5Q-19" value="nickname VARCHAR(15) NOT NULL" style="shape=partialRectangle;overflow=hidden;connectable=0;fillColor=none;top=0;left=0;bottom=0;right=0;align=left;spacingLeft=6;" parent="xltGa2Rw6O9IPXyMZN5Q-17" vertex="1">
          <mxGeometry x="30" width="220" height="30" as="geometry" />
        </mxCell>
        <mxCell id="C-vyLk0tnHw3VtMMgP7b-27" value="" style="shape=partialRectangle;collapsible=0;dropTarget=0;pointerEvents=0;fillColor=none;points=[[0,0.5],[1,0.5]];portConstraint=eastwest;top=0;left=0;right=0;bottom=0;" parent="C-vyLk0tnHw3VtMMgP7b-23" vertex="1">
          <mxGeometry y="90" width="250" height="30" as="geometry" />
        </mxCell>
        <mxCell id="C-vyLk0tnHw3VtMMgP7b-28" value="" style="shape=partialRectangle;overflow=hidden;connectable=0;fillColor=none;top=0;left=0;bottom=0;right=0;" parent="C-vyLk0tnHw3VtMMgP7b-27" vertex="1">
          <mxGeometry width="30" height="30" as="geometry" />
        </mxCell>
        <mxCell id="C-vyLk0tnHw3VtMMgP7b-29" value="fullname VARCHAR(255) NOT NULL" style="shape=partialRectangle;overflow=hidden;connectable=0;fillColor=none;top=0;left=0;bottom=0;right=0;align=left;spacingLeft=6;" parent="C-vyLk0tnHw3VtMMgP7b-27" vertex="1">
          <mxGeometry x="30" width="220" height="30" as="geometry" />
        </mxCell>
        <mxCell id="xltGa2Rw6O9IPXyMZN5Q-11" style="shape=partialRectangle;collapsible=0;dropTarget=0;pointerEvents=0;fillColor=none;points=[[0,0.5],[1,0.5]];portConstraint=eastwest;top=0;left=0;right=0;bottom=0;" parent="C-vyLk0tnHw3VtMMgP7b-23" vertex="1">
          <mxGeometry y="120" width="250" height="30" as="geometry" />
        </mxCell>
        <mxCell id="xltGa2Rw6O9IPXyMZN5Q-12" style="shape=partialRectangle;overflow=hidden;connectable=0;fillColor=none;top=0;left=0;bottom=0;right=0;" parent="xltGa2Rw6O9IPXyMZN5Q-11" vertex="1">
          <mxGeometry width="30" height="30" as="geometry" />
        </mxCell>
        <mxCell id="xltGa2Rw6O9IPXyMZN5Q-13" value="email VARCHAR(255) NOT NULL" style="shape=partialRectangle;overflow=hidden;connectable=0;fillColor=none;top=0;left=0;bottom=0;right=0;align=left;spacingLeft=6;" parent="xltGa2Rw6O9IPXyMZN5Q-11" vertex="1">
          <mxGeometry x="30" width="220" height="30" as="geometry" />
        </mxCell>
        <mxCell id="xltGa2Rw6O9IPXyMZN5Q-14" style="shape=partialRectangle;collapsible=0;dropTarget=0;pointerEvents=0;fillColor=none;points=[[0,0.5],[1,0.5]];portConstraint=eastwest;top=0;left=0;right=0;bottom=0;" parent="C-vyLk0tnHw3VtMMgP7b-23" vertex="1">
          <mxGeometry y="150" width="250" height="30" as="geometry" />
        </mxCell>
        <mxCell id="xltGa2Rw6O9IPXyMZN5Q-15" style="shape=partialRectangle;overflow=hidden;connectable=0;fillColor=none;top=0;left=0;bottom=0;right=0;" parent="xltGa2Rw6O9IPXyMZN5Q-14" vertex="1">
          <mxGeometry width="30" height="30" as="geometry" />
        </mxCell>
        <mxCell id="xltGa2Rw6O9IPXyMZN5Q-16" value="password VARCHAR(255) NOT NULL" style="shape=partialRectangle;overflow=hidden;connectable=0;fillColor=none;top=0;left=0;bottom=0;right=0;align=left;spacingLeft=6;" parent="xltGa2Rw6O9IPXyMZN5Q-14" vertex="1">
          <mxGeometry x="30" width="220" height="30" as="geometry" />
        </mxCell>
        <mxCell id="xltGa2Rw6O9IPXyMZN5Q-46" style="shape=partialRectangle;collapsible=0;dropTarget=0;pointerEvents=0;fillColor=none;points=[[0,0.5],[1,0.5]];portConstraint=eastwest;top=0;left=0;right=0;bottom=0;" parent="C-vyLk0tnHw3VtMMgP7b-23" vertex="1">
          <mxGeometry y="180" width="250" height="30" as="geometry" />
        </mxCell>
        <mxCell id="xltGa2Rw6O9IPXyMZN5Q-47" style="shape=partialRectangle;overflow=hidden;connectable=0;fillColor=none;top=0;left=0;bottom=0;right=0;" parent="xltGa2Rw6O9IPXyMZN5Q-46" vertex="1">
          <mxGeometry width="30" height="30" as="geometry" />
        </mxCell>
        <mxCell id="xltGa2Rw6O9IPXyMZN5Q-48" value="phone_number VARCHAR(15) NULL" style="shape=partialRectangle;overflow=hidden;connectable=0;fillColor=none;top=0;left=0;bottom=0;right=0;align=left;spacingLeft=6;" parent="xltGa2Rw6O9IPXyMZN5Q-46" vertex="1">
          <mxGeometry x="30" width="220" height="30" as="geometry" />
        </mxCell>
        <mxCell id="xltGa2Rw6O9IPXyMZN5Q-49" style="shape=partialRectangle;collapsible=0;dropTarget=0;pointerEvents=0;fillColor=none;points=[[0,0.5],[1,0.5]];portConstraint=eastwest;top=0;left=0;right=0;bottom=0;" parent="C-vyLk0tnHw3VtMMgP7b-23" vertex="1">
          <mxGeometry y="210" width="250" height="30" as="geometry" />
        </mxCell>
        <mxCell id="xltGa2Rw6O9IPXyMZN5Q-50" style="shape=partialRectangle;overflow=hidden;connectable=0;fillColor=none;top=0;left=0;bottom=0;right=0;" parent="xltGa2Rw6O9IPXyMZN5Q-49" vertex="1">
          <mxGeometry width="30" height="30" as="geometry" />
        </mxCell>
        <mxCell id="xltGa2Rw6O9IPXyMZN5Q-51" value="created_at TIMESTAMP NOT NULL" style="shape=partialRectangle;overflow=hidden;connectable=0;fillColor=none;top=0;left=0;bottom=0;right=0;align=left;spacingLeft=6;" parent="xltGa2Rw6O9IPXyMZN5Q-49" vertex="1">
          <mxGeometry x="30" width="220" height="30" as="geometry" />
        </mxCell>
        <mxCell id="xltGa2Rw6O9IPXyMZN5Q-52" style="shape=partialRectangle;collapsible=0;dropTarget=0;pointerEvents=0;fillColor=none;points=[[0,0.5],[1,0.5]];portConstraint=eastwest;top=0;left=0;right=0;bottom=0;" parent="C-vyLk0tnHw3VtMMgP7b-23" vertex="1">
          <mxGeometry y="240" width="250" height="30" as="geometry" />
        </mxCell>
        <mxCell id="xltGa2Rw6O9IPXyMZN5Q-53" style="shape=partialRectangle;overflow=hidden;connectable=0;fillColor=none;top=0;left=0;bottom=0;right=0;" parent="xltGa2Rw6O9IPXyMZN5Q-52" vertex="1">
          <mxGeometry width="30" height="30" as="geometry" />
        </mxCell>
        <mxCell id="xltGa2Rw6O9IPXyMZN5Q-54" value="updated_at TIMESTAMP NOT NULL" style="shape=partialRectangle;overflow=hidden;connectable=0;fillColor=none;top=0;left=0;bottom=0;right=0;align=left;spacingLeft=6;" parent="xltGa2Rw6O9IPXyMZN5Q-52" vertex="1">
          <mxGeometry x="30" width="220" height="30" as="geometry" />
        </mxCell>
        <mxCell id="kniY7JMG2TVg29DjpVdC-26" style="shape=partialRectangle;collapsible=0;dropTarget=0;pointerEvents=0;fillColor=none;points=[[0,0.5],[1,0.5]];portConstraint=eastwest;top=0;left=0;right=0;bottom=0;" vertex="1" parent="C-vyLk0tnHw3VtMMgP7b-23">
          <mxGeometry y="270" width="250" height="30" as="geometry" />
        </mxCell>
        <mxCell id="kniY7JMG2TVg29DjpVdC-27" style="shape=partialRectangle;overflow=hidden;connectable=0;fillColor=none;top=0;left=0;bottom=0;right=0;" vertex="1" parent="kniY7JMG2TVg29DjpVdC-26">
          <mxGeometry width="30" height="30" as="geometry" />
        </mxCell>
        <mxCell id="kniY7JMG2TVg29DjpVdC-28" value="deleted_at TIMESTAMP NOT NULL" style="shape=partialRectangle;overflow=hidden;connectable=0;fillColor=none;top=0;left=0;bottom=0;right=0;align=left;spacingLeft=6;" vertex="1" parent="kniY7JMG2TVg29DjpVdC-26">
          <mxGeometry x="30" width="220" height="30" as="geometry" />
        </mxCell>
        <mxCell id="xltGa2Rw6O9IPXyMZN5Q-55" value="states" style="shape=table;startSize=30;container=1;collapsible=1;childLayout=tableLayout;fixedRows=1;rowLines=0;fontStyle=1;align=center;resizeLast=1;" parent="1" vertex="1">
          <mxGeometry x="730" y="840" width="270" height="300" as="geometry">
            <mxRectangle x="120" y="120" width="60" height="30" as="alternateBounds" />
          </mxGeometry>
        </mxCell>
        <mxCell id="xltGa2Rw6O9IPXyMZN5Q-56" value="" style="shape=partialRectangle;collapsible=0;dropTarget=0;pointerEvents=0;fillColor=none;points=[[0,0.5],[1,0.5]];portConstraint=eastwest;top=0;left=0;right=0;bottom=1;" parent="xltGa2Rw6O9IPXyMZN5Q-55" vertex="1">
          <mxGeometry y="30" width="270" height="30" as="geometry" />
        </mxCell>
        <mxCell id="xltGa2Rw6O9IPXyMZN5Q-57" value="PK" style="shape=partialRectangle;overflow=hidden;connectable=0;fillColor=none;top=0;left=0;bottom=0;right=0;fontStyle=1;" parent="xltGa2Rw6O9IPXyMZN5Q-56" vertex="1">
          <mxGeometry width="30" height="30" as="geometry" />
        </mxCell>
        <mxCell id="xltGa2Rw6O9IPXyMZN5Q-58" value="id BIGINT UNSIGNEDÂ NOT NULL" style="shape=partialRectangle;overflow=hidden;connectable=0;fillColor=none;top=0;left=0;bottom=0;right=0;align=left;spacingLeft=6;fontStyle=5;" parent="xltGa2Rw6O9IPXyMZN5Q-56" vertex="1">
          <mxGeometry x="30" width="240" height="30" as="geometry" />
        </mxCell>
        <mxCell id="xltGa2Rw6O9IPXyMZN5Q-127" value="" style="shape=partialRectangle;collapsible=0;dropTarget=0;pointerEvents=0;fillColor=none;points=[[0,0.5],[1,0.5]];portConstraint=eastwest;top=0;left=0;right=0;bottom=0;" parent="xltGa2Rw6O9IPXyMZN5Q-55" vertex="1">
          <mxGeometry y="60" width="270" height="30" as="geometry" />
        </mxCell>
        <mxCell id="xltGa2Rw6O9IPXyMZN5Q-128" value="FK1" style="shape=partialRectangle;overflow=hidden;connectable=0;fillColor=none;top=0;left=0;bottom=0;right=0;" parent="xltGa2Rw6O9IPXyMZN5Q-127" vertex="1">
          <mxGeometry width="30" height="30" as="geometry" />
        </mxCell>
        <mxCell id="xltGa2Rw6O9IPXyMZN5Q-129" value="country_id UNSIGNED BIGINT NOT NULL" style="shape=partialRectangle;overflow=hidden;connectable=0;fillColor=none;top=0;left=0;bottom=0;right=0;align=left;spacingLeft=6;" parent="xltGa2Rw6O9IPXyMZN5Q-127" vertex="1">
          <mxGeometry x="30" width="240" height="30" as="geometry" />
        </mxCell>
        <mxCell id="xltGa2Rw6O9IPXyMZN5Q-59" style="shape=partialRectangle;collapsible=0;dropTarget=0;pointerEvents=0;fillColor=none;points=[[0,0.5],[1,0.5]];portConstraint=eastwest;top=0;left=0;right=0;bottom=0;" parent="xltGa2Rw6O9IPXyMZN5Q-55" vertex="1">
          <mxGeometry y="90" width="270" height="20" as="geometry" />
        </mxCell>
        <mxCell id="xltGa2Rw6O9IPXyMZN5Q-60" style="shape=partialRectangle;overflow=hidden;connectable=0;fillColor=none;top=0;left=0;bottom=0;right=0;" parent="xltGa2Rw6O9IPXyMZN5Q-59" vertex="1">
          <mxGeometry width="30" height="20" as="geometry" />
        </mxCell>
        <mxCell id="xltGa2Rw6O9IPXyMZN5Q-61" value="name VARCHAR(255) NOT NULL" style="shape=partialRectangle;overflow=hidden;connectable=0;fillColor=none;top=0;left=0;bottom=0;right=0;align=left;spacingLeft=6;" parent="xltGa2Rw6O9IPXyMZN5Q-59" vertex="1">
          <mxGeometry x="30" width="240" height="20" as="geometry" />
        </mxCell>
        <mxCell id="xltGa2Rw6O9IPXyMZN5Q-62" value="" style="shape=partialRectangle;collapsible=0;dropTarget=0;pointerEvents=0;fillColor=none;points=[[0,0.5],[1,0.5]];portConstraint=eastwest;top=0;left=0;right=0;bottom=0;" parent="xltGa2Rw6O9IPXyMZN5Q-55" vertex="1">
          <mxGeometry y="110" width="270" height="30" as="geometry" />
        </mxCell>
        <mxCell id="xltGa2Rw6O9IPXyMZN5Q-63" value="" style="shape=partialRectangle;overflow=hidden;connectable=0;fillColor=none;top=0;left=0;bottom=0;right=0;" parent="xltGa2Rw6O9IPXyMZN5Q-62" vertex="1">
          <mxGeometry width="30" height="30" as="geometry" />
        </mxCell>
        <mxCell id="xltGa2Rw6O9IPXyMZN5Q-64" value="acronym CHAR(2) NOT NULL" style="shape=partialRectangle;overflow=hidden;connectable=0;fillColor=none;top=0;left=0;bottom=0;right=0;align=left;spacingLeft=6;" parent="xltGa2Rw6O9IPXyMZN5Q-62" vertex="1">
          <mxGeometry x="30" width="240" height="30" as="geometry" />
        </mxCell>
        <mxCell id="xltGa2Rw6O9IPXyMZN5Q-68" style="shape=partialRectangle;collapsible=0;dropTarget=0;pointerEvents=0;fillColor=none;points=[[0,0.5],[1,0.5]];portConstraint=eastwest;top=0;left=0;right=0;bottom=0;" parent="xltGa2Rw6O9IPXyMZN5Q-55" vertex="1">
          <mxGeometry y="140" width="270" height="30" as="geometry" />
        </mxCell>
        <mxCell id="xltGa2Rw6O9IPXyMZN5Q-69" style="shape=partialRectangle;overflow=hidden;connectable=0;fillColor=none;top=0;left=0;bottom=0;right=0;" parent="xltGa2Rw6O9IPXyMZN5Q-68" vertex="1">
          <mxGeometry width="30" height="30" as="geometry" />
        </mxCell>
        <mxCell id="xltGa2Rw6O9IPXyMZN5Q-70" value="latitude FLOAT(8) NOT NULL" style="shape=partialRectangle;overflow=hidden;connectable=0;fillColor=none;top=0;left=0;bottom=0;right=0;align=left;spacingLeft=6;" parent="xltGa2Rw6O9IPXyMZN5Q-68" vertex="1">
          <mxGeometry x="30" width="240" height="30" as="geometry" />
        </mxCell>
        <mxCell id="xltGa2Rw6O9IPXyMZN5Q-71" style="shape=partialRectangle;collapsible=0;dropTarget=0;pointerEvents=0;fillColor=none;points=[[0,0.5],[1,0.5]];portConstraint=eastwest;top=0;left=0;right=0;bottom=0;" parent="xltGa2Rw6O9IPXyMZN5Q-55" vertex="1">
          <mxGeometry y="170" width="270" height="30" as="geometry" />
        </mxCell>
        <mxCell id="xltGa2Rw6O9IPXyMZN5Q-72" style="shape=partialRectangle;overflow=hidden;connectable=0;fillColor=none;top=0;left=0;bottom=0;right=0;" parent="xltGa2Rw6O9IPXyMZN5Q-71" vertex="1">
          <mxGeometry width="30" height="30" as="geometry" />
        </mxCell>
        <mxCell id="xltGa2Rw6O9IPXyMZN5Q-73" value="longitude FLOAT(8) NOT NULL" style="shape=partialRectangle;overflow=hidden;connectable=0;fillColor=none;top=0;left=0;bottom=0;right=0;align=left;spacingLeft=6;" parent="xltGa2Rw6O9IPXyMZN5Q-71" vertex="1">
          <mxGeometry x="30" width="240" height="30" as="geometry" />
        </mxCell>
        <mxCell id="xltGa2Rw6O9IPXyMZN5Q-96" style="shape=partialRectangle;collapsible=0;dropTarget=0;pointerEvents=0;fillColor=none;points=[[0,0.5],[1,0.5]];portConstraint=eastwest;top=0;left=0;right=0;bottom=0;" parent="xltGa2Rw6O9IPXyMZN5Q-55" vertex="1">
          <mxGeometry y="200" width="270" height="30" as="geometry" />
        </mxCell>
        <mxCell id="xltGa2Rw6O9IPXyMZN5Q-97" style="shape=partialRectangle;overflow=hidden;connectable=0;fillColor=none;top=0;left=0;bottom=0;right=0;" parent="xltGa2Rw6O9IPXyMZN5Q-96" vertex="1">
          <mxGeometry width="30" height="30" as="geometry" />
        </mxCell>
        <mxCell id="xltGa2Rw6O9IPXyMZN5Q-98" value="created_at TIMESTAMP NOT NULL" style="shape=partialRectangle;overflow=hidden;connectable=0;fillColor=none;top=0;left=0;bottom=0;right=0;align=left;spacingLeft=6;" parent="xltGa2Rw6O9IPXyMZN5Q-96" vertex="1">
          <mxGeometry x="30" width="240" height="30" as="geometry" />
        </mxCell>
        <mxCell id="xltGa2Rw6O9IPXyMZN5Q-99" style="shape=partialRectangle;collapsible=0;dropTarget=0;pointerEvents=0;fillColor=none;points=[[0,0.5],[1,0.5]];portConstraint=eastwest;top=0;left=0;right=0;bottom=0;" parent="xltGa2Rw6O9IPXyMZN5Q-55" vertex="1">
          <mxGeometry y="230" width="270" height="30" as="geometry" />
        </mxCell>
        <mxCell id="xltGa2Rw6O9IPXyMZN5Q-100" style="shape=partialRectangle;overflow=hidden;connectable=0;fillColor=none;top=0;left=0;bottom=0;right=0;" parent="xltGa2Rw6O9IPXyMZN5Q-99" vertex="1">
          <mxGeometry width="30" height="30" as="geometry" />
        </mxCell>
        <mxCell id="xltGa2Rw6O9IPXyMZN5Q-101" value="updated_at TIMESTAMP NOT NULL" style="shape=partialRectangle;overflow=hidden;connectable=0;fillColor=none;top=0;left=0;bottom=0;right=0;align=left;spacingLeft=6;" parent="xltGa2Rw6O9IPXyMZN5Q-99" vertex="1">
          <mxGeometry x="30" width="240" height="30" as="geometry" />
        </mxCell>
        <mxCell id="xltGa2Rw6O9IPXyMZN5Q-131" style="shape=partialRectangle;collapsible=0;dropTarget=0;pointerEvents=0;fillColor=none;points=[[0,0.5],[1,0.5]];portConstraint=eastwest;top=0;left=0;right=0;bottom=0;" parent="xltGa2Rw6O9IPXyMZN5Q-55" vertex="1">
          <mxGeometry y="260" width="270" height="30" as="geometry" />
        </mxCell>
        <mxCell id="xltGa2Rw6O9IPXyMZN5Q-132" style="shape=partialRectangle;overflow=hidden;connectable=0;fillColor=none;top=0;left=0;bottom=0;right=0;" parent="xltGa2Rw6O9IPXyMZN5Q-131" vertex="1">
          <mxGeometry width="30" height="30" as="geometry" />
        </mxCell>
        <mxCell id="xltGa2Rw6O9IPXyMZN5Q-133" value="deleted_at TIMESTAMP NOT NULL" style="shape=partialRectangle;overflow=hidden;connectable=0;fillColor=none;top=0;left=0;bottom=0;right=0;align=left;spacingLeft=6;" parent="xltGa2Rw6O9IPXyMZN5Q-131" vertex="1">
          <mxGeometry x="30" width="240" height="30" as="geometry" />
        </mxCell>
        <mxCell id="xltGa2Rw6O9IPXyMZN5Q-78" style="edgeStyle=orthogonalEdgeStyle;orthogonalLoop=1;jettySize=auto;html=1;exitX=1;exitY=0.5;exitDx=0;exitDy=0;endArrow=ERone;endFill=0;startArrow=ERmany;startFill=0;" parent="1" source="xltGa2Rw6O9IPXyMZN5Q-31" target="xltGa2Rw6O9IPXyMZN5Q-56" edge="1">
          <mxGeometry relative="1" as="geometry" />
        </mxCell>
        <mxCell id="xltGa2Rw6O9IPXyMZN5Q-102" value="countries" style="shape=table;startSize=30;container=1;collapsible=1;childLayout=tableLayout;fixedRows=1;rowLines=0;fontStyle=1;align=center;resizeLast=1;" parent="1" vertex="1">
          <mxGeometry x="650" y="1180" width="250" height="180" as="geometry">
            <mxRectangle x="120" y="120" width="60" height="30" as="alternateBounds" />
          </mxGeometry>
        </mxCell>
        <mxCell id="xltGa2Rw6O9IPXyMZN5Q-103" value="" style="shape=partialRectangle;collapsible=0;dropTarget=0;pointerEvents=0;fillColor=none;points=[[0,0.5],[1,0.5]];portConstraint=eastwest;top=0;left=0;right=0;bottom=1;" parent="xltGa2Rw6O9IPXyMZN5Q-102" vertex="1">
          <mxGeometry y="30" width="250" height="30" as="geometry" />
        </mxCell>
        <mxCell id="xltGa2Rw6O9IPXyMZN5Q-104" value="PK" style="shape=partialRectangle;overflow=hidden;connectable=0;fillColor=none;top=0;left=0;bottom=0;right=0;fontStyle=1;" parent="xltGa2Rw6O9IPXyMZN5Q-103" vertex="1">
          <mxGeometry width="30" height="30" as="geometry" />
        </mxCell>
        <mxCell id="xltGa2Rw6O9IPXyMZN5Q-105" value="id BIGINT UNSIGNEDÂ NOT NULL" style="shape=partialRectangle;overflow=hidden;connectable=0;fillColor=none;top=0;left=0;bottom=0;right=0;align=left;spacingLeft=6;fontStyle=5;" parent="xltGa2Rw6O9IPXyMZN5Q-103" vertex="1">
          <mxGeometry x="30" width="220" height="30" as="geometry" />
        </mxCell>
        <mxCell id="xltGa2Rw6O9IPXyMZN5Q-106" style="shape=partialRectangle;collapsible=0;dropTarget=0;pointerEvents=0;fillColor=none;points=[[0,0.5],[1,0.5]];portConstraint=eastwest;top=0;left=0;right=0;bottom=0;" parent="xltGa2Rw6O9IPXyMZN5Q-102" vertex="1">
          <mxGeometry y="60" width="250" height="20" as="geometry" />
        </mxCell>
        <mxCell id="xltGa2Rw6O9IPXyMZN5Q-107" style="shape=partialRectangle;overflow=hidden;connectable=0;fillColor=none;top=0;left=0;bottom=0;right=0;" parent="xltGa2Rw6O9IPXyMZN5Q-106" vertex="1">
          <mxGeometry width="30" height="20" as="geometry" />
        </mxCell>
        <mxCell id="xltGa2Rw6O9IPXyMZN5Q-108" value="name VARCHAR(255) NOT NULL" style="shape=partialRectangle;overflow=hidden;connectable=0;fillColor=none;top=0;left=0;bottom=0;right=0;align=left;spacingLeft=6;" parent="xltGa2Rw6O9IPXyMZN5Q-106" vertex="1">
          <mxGeometry x="30" width="220" height="20" as="geometry" />
        </mxCell>
        <mxCell id="xltGa2Rw6O9IPXyMZN5Q-118" style="shape=partialRectangle;collapsible=0;dropTarget=0;pointerEvents=0;fillColor=none;points=[[0,0.5],[1,0.5]];portConstraint=eastwest;top=0;left=0;right=0;bottom=0;" parent="xltGa2Rw6O9IPXyMZN5Q-102" vertex="1">
          <mxGeometry y="80" width="250" height="30" as="geometry" />
        </mxCell>
        <mxCell id="xltGa2Rw6O9IPXyMZN5Q-119" style="shape=partialRectangle;overflow=hidden;connectable=0;fillColor=none;top=0;left=0;bottom=0;right=0;" parent="xltGa2Rw6O9IPXyMZN5Q-118" vertex="1">
          <mxGeometry width="30" height="30" as="geometry" />
        </mxCell>
        <mxCell id="xltGa2Rw6O9IPXyMZN5Q-120" value="created_at TIMESTAMP NOT NULL" style="shape=partialRectangle;overflow=hidden;connectable=0;fillColor=none;top=0;left=0;bottom=0;right=0;align=left;spacingLeft=6;" parent="xltGa2Rw6O9IPXyMZN5Q-118" vertex="1">
          <mxGeometry x="30" width="220" height="30" as="geometry" />
        </mxCell>
        <mxCell id="xltGa2Rw6O9IPXyMZN5Q-121" style="shape=partialRectangle;collapsible=0;dropTarget=0;pointerEvents=0;fillColor=none;points=[[0,0.5],[1,0.5]];portConstraint=eastwest;top=0;left=0;right=0;bottom=0;" parent="xltGa2Rw6O9IPXyMZN5Q-102" vertex="1">
          <mxGeometry y="110" width="250" height="30" as="geometry" />
        </mxCell>
        <mxCell id="xltGa2Rw6O9IPXyMZN5Q-122" style="shape=partialRectangle;overflow=hidden;connectable=0;fillColor=none;top=0;left=0;bottom=0;right=0;" parent="xltGa2Rw6O9IPXyMZN5Q-121" vertex="1">
          <mxGeometry width="30" height="30" as="geometry" />
        </mxCell>
        <mxCell id="xltGa2Rw6O9IPXyMZN5Q-123" value="updated_at TIMESTAMP NOT NULL" style="shape=partialRectangle;overflow=hidden;connectable=0;fillColor=none;top=0;left=0;bottom=0;right=0;align=left;spacingLeft=6;" parent="xltGa2Rw6O9IPXyMZN5Q-121" vertex="1">
          <mxGeometry x="30" width="220" height="30" as="geometry" />
        </mxCell>
        <mxCell id="xltGa2Rw6O9IPXyMZN5Q-137" style="shape=partialRectangle;collapsible=0;dropTarget=0;pointerEvents=0;fillColor=none;points=[[0,0.5],[1,0.5]];portConstraint=eastwest;top=0;left=0;right=0;bottom=0;" parent="xltGa2Rw6O9IPXyMZN5Q-102" vertex="1">
          <mxGeometry y="140" width="250" height="30" as="geometry" />
        </mxCell>
        <mxCell id="xltGa2Rw6O9IPXyMZN5Q-138" style="shape=partialRectangle;overflow=hidden;connectable=0;fillColor=none;top=0;left=0;bottom=0;right=0;" parent="xltGa2Rw6O9IPXyMZN5Q-137" vertex="1">
          <mxGeometry width="30" height="30" as="geometry" />
        </mxCell>
        <mxCell id="xltGa2Rw6O9IPXyMZN5Q-139" value="deleted_at TIMESTAMP NOT NULL" style="shape=partialRectangle;overflow=hidden;connectable=0;fillColor=none;top=0;left=0;bottom=0;right=0;align=left;spacingLeft=6;" parent="xltGa2Rw6O9IPXyMZN5Q-137" vertex="1">
          <mxGeometry x="30" width="220" height="30" as="geometry" />
        </mxCell>
        <mxCell id="xltGa2Rw6O9IPXyMZN5Q-130" style="edgeStyle=orthogonalEdgeStyle;orthogonalLoop=1;jettySize=auto;html=1;entryX=0;entryY=0.5;entryDx=0;entryDy=0;startArrow=ERmany;startFill=0;endArrow=ERone;endFill=0;" parent="1" source="xltGa2Rw6O9IPXyMZN5Q-127" target="xltGa2Rw6O9IPXyMZN5Q-103" edge="1">
          <mxGeometry relative="1" as="geometry" />
        </mxCell>
        <mxCell id="kniY7JMG2TVg29DjpVdC-1" value="trip_days" style="shape=table;startSize=30;container=1;collapsible=1;childLayout=tableLayout;fixedRows=1;rowLines=0;fontStyle=1;align=center;resizeLast=1;" vertex="1" parent="1">
          <mxGeometry x="-520" y="100" width="260" height="220" as="geometry">
            <mxRectangle x="120" y="120" width="60" height="30" as="alternateBounds" />
          </mxGeometry>
        </mxCell>
        <mxCell id="kniY7JMG2TVg29DjpVdC-2" value="" style="shape=partialRectangle;collapsible=0;dropTarget=0;pointerEvents=0;fillColor=none;points=[[0,0.5],[1,0.5]];portConstraint=eastwest;top=0;left=0;right=0;bottom=1;" vertex="1" parent="kniY7JMG2TVg29DjpVdC-1">
          <mxGeometry y="30" width="260" height="30" as="geometry" />
        </mxCell>
        <mxCell id="kniY7JMG2TVg29DjpVdC-3" value="PK" style="shape=partialRectangle;overflow=hidden;connectable=0;fillColor=none;top=0;left=0;bottom=0;right=0;fontStyle=1;" vertex="1" parent="kniY7JMG2TVg29DjpVdC-2">
          <mxGeometry width="30" height="30" as="geometry" />
        </mxCell>
        <mxCell id="kniY7JMG2TVg29DjpVdC-4" value="id BIGINT UNSIGNEDÂ NOT NULL" style="shape=partialRectangle;overflow=hidden;connectable=0;fillColor=none;top=0;left=0;bottom=0;right=0;align=left;spacingLeft=6;fontStyle=5;" vertex="1" parent="kniY7JMG2TVg29DjpVdC-2">
          <mxGeometry x="30" width="230" height="30" as="geometry" />
        </mxCell>
        <mxCell id="kniY7JMG2TVg29DjpVdC-5" style="shape=partialRectangle;collapsible=0;dropTarget=0;pointerEvents=0;fillColor=none;points=[[0,0.5],[1,0.5]];portConstraint=eastwest;top=0;left=0;right=0;bottom=0;" vertex="1" parent="kniY7JMG2TVg29DjpVdC-1">
          <mxGeometry y="60" width="260" height="30" as="geometry" />
        </mxCell>
        <mxCell id="kniY7JMG2TVg29DjpVdC-6" value="FK1" style="shape=partialRectangle;overflow=hidden;connectable=0;fillColor=none;top=0;left=0;bottom=0;right=0;" vertex="1" parent="kniY7JMG2TVg29DjpVdC-5">
          <mxGeometry width="30" height="30" as="geometry" />
        </mxCell>
        <mxCell id="kniY7JMG2TVg29DjpVdC-7" value="trip_id BIGINT UNSIGNED NOT NULL" style="shape=partialRectangle;overflow=hidden;connectable=0;fillColor=none;top=0;left=0;bottom=0;right=0;align=left;spacingLeft=6;" vertex="1" parent="kniY7JMG2TVg29DjpVdC-5">
          <mxGeometry x="30" width="230" height="30" as="geometry" />
        </mxCell>
        <mxCell id="kniY7JMG2TVg29DjpVdC-35" style="shape=partialRectangle;collapsible=0;dropTarget=0;pointerEvents=0;fillColor=none;points=[[0,0.5],[1,0.5]];portConstraint=eastwest;top=0;left=0;right=0;bottom=0;" vertex="1" parent="kniY7JMG2TVg29DjpVdC-1">
          <mxGeometry y="90" width="260" height="30" as="geometry" />
        </mxCell>
        <mxCell id="kniY7JMG2TVg29DjpVdC-36" style="shape=partialRectangle;overflow=hidden;connectable=0;fillColor=none;top=0;left=0;bottom=0;right=0;" vertex="1" parent="kniY7JMG2TVg29DjpVdC-35">
          <mxGeometry width="30" height="30" as="geometry" />
        </mxCell>
        <mxCell id="kniY7JMG2TVg29DjpVdC-37" value="date DATE NOT NULL" style="shape=partialRectangle;overflow=hidden;connectable=0;fillColor=none;top=0;left=0;bottom=0;right=0;align=left;spacingLeft=6;" vertex="1" parent="kniY7JMG2TVg29DjpVdC-35">
          <mxGeometry x="30" width="230" height="30" as="geometry" />
        </mxCell>
        <mxCell id="kniY7JMG2TVg29DjpVdC-20" style="shape=partialRectangle;collapsible=0;dropTarget=0;pointerEvents=0;fillColor=none;points=[[0,0.5],[1,0.5]];portConstraint=eastwest;top=0;left=0;right=0;bottom=0;" vertex="1" parent="kniY7JMG2TVg29DjpVdC-1">
          <mxGeometry y="120" width="260" height="30" as="geometry" />
        </mxCell>
        <mxCell id="kniY7JMG2TVg29DjpVdC-21" style="shape=partialRectangle;overflow=hidden;connectable=0;fillColor=none;top=0;left=0;bottom=0;right=0;" vertex="1" parent="kniY7JMG2TVg29DjpVdC-20">
          <mxGeometry width="30" height="30" as="geometry" />
        </mxCell>
        <mxCell id="kniY7JMG2TVg29DjpVdC-22" value="created_at TIMESTAMP NOT NULL" style="shape=partialRectangle;overflow=hidden;connectable=0;fillColor=none;top=0;left=0;bottom=0;right=0;align=left;spacingLeft=6;" vertex="1" parent="kniY7JMG2TVg29DjpVdC-20">
          <mxGeometry x="30" width="230" height="30" as="geometry" />
        </mxCell>
        <mxCell id="kniY7JMG2TVg29DjpVdC-23" style="shape=partialRectangle;collapsible=0;dropTarget=0;pointerEvents=0;fillColor=none;points=[[0,0.5],[1,0.5]];portConstraint=eastwest;top=0;left=0;right=0;bottom=0;" vertex="1" parent="kniY7JMG2TVg29DjpVdC-1">
          <mxGeometry y="150" width="260" height="30" as="geometry" />
        </mxCell>
        <mxCell id="kniY7JMG2TVg29DjpVdC-24" style="shape=partialRectangle;overflow=hidden;connectable=0;fillColor=none;top=0;left=0;bottom=0;right=0;" vertex="1" parent="kniY7JMG2TVg29DjpVdC-23">
          <mxGeometry width="30" height="30" as="geometry" />
        </mxCell>
        <mxCell id="kniY7JMG2TVg29DjpVdC-25" value="updated_at TIMESTAMP NOT NULL" style="shape=partialRectangle;overflow=hidden;connectable=0;fillColor=none;top=0;left=0;bottom=0;right=0;align=left;spacingLeft=6;" vertex="1" parent="kniY7JMG2TVg29DjpVdC-23">
          <mxGeometry x="30" width="230" height="30" as="geometry" />
        </mxCell>
        <mxCell id="kniY7JMG2TVg29DjpVdC-29" style="shape=partialRectangle;collapsible=0;dropTarget=0;pointerEvents=0;fillColor=none;points=[[0,0.5],[1,0.5]];portConstraint=eastwest;top=0;left=0;right=0;bottom=0;" vertex="1" parent="kniY7JMG2TVg29DjpVdC-1">
          <mxGeometry y="180" width="260" height="30" as="geometry" />
        </mxCell>
        <mxCell id="kniY7JMG2TVg29DjpVdC-30" style="shape=partialRectangle;overflow=hidden;connectable=0;fillColor=none;top=0;left=0;bottom=0;right=0;" vertex="1" parent="kniY7JMG2TVg29DjpVdC-29">
          <mxGeometry width="30" height="30" as="geometry" />
        </mxCell>
        <mxCell id="kniY7JMG2TVg29DjpVdC-31" value="deleted_at TIMESTAMP NOT NULL" style="shape=partialRectangle;overflow=hidden;connectable=0;fillColor=none;top=0;left=0;bottom=0;right=0;align=left;spacingLeft=6;" vertex="1" parent="kniY7JMG2TVg29DjpVdC-29">
          <mxGeometry x="30" width="230" height="30" as="geometry" />
        </mxCell>
        <mxCell id="kniY7JMG2TVg29DjpVdC-38" style="edgeStyle=orthogonalEdgeStyle;orthogonalLoop=1;jettySize=auto;html=1;endArrow=ERmany;endFill=0;startArrow=ERone;startFill=0;" edge="1" parent="1" source="C-vyLk0tnHw3VtMMgP7b-24" target="kniY7JMG2TVg29DjpVdC-44">
          <mxGeometry relative="1" as="geometry" />
        </mxCell>
        <mxCell id="kniY7JMG2TVg29DjpVdC-40" value="trips" style="shape=table;startSize=30;container=1;collapsible=1;childLayout=tableLayout;fixedRows=1;rowLines=0;fontStyle=1;align=center;resizeLast=1;" vertex="1" parent="1">
          <mxGeometry x="-190" y="-220" width="300" height="370" as="geometry">
            <mxRectangle x="120" y="120" width="60" height="30" as="alternateBounds" />
          </mxGeometry>
        </mxCell>
        <mxCell id="kniY7JMG2TVg29DjpVdC-41" value="" style="shape=partialRectangle;collapsible=0;dropTarget=0;pointerEvents=0;fillColor=none;points=[[0,0.5],[1,0.5]];portConstraint=eastwest;top=0;left=0;right=0;bottom=1;" vertex="1" parent="kniY7JMG2TVg29DjpVdC-40">
          <mxGeometry y="30" width="300" height="30" as="geometry" />
        </mxCell>
        <mxCell id="kniY7JMG2TVg29DjpVdC-42" value="PK" style="shape=partialRectangle;overflow=hidden;connectable=0;fillColor=none;top=0;left=0;bottom=0;right=0;fontStyle=1;" vertex="1" parent="kniY7JMG2TVg29DjpVdC-41">
          <mxGeometry width="30" height="30" as="geometry" />
        </mxCell>
        <mxCell id="kniY7JMG2TVg29DjpVdC-43" value="id BIGINT UNSIGNEDÂ NOT NULL" style="shape=partialRectangle;overflow=hidden;connectable=0;fillColor=none;top=0;left=0;bottom=0;right=0;align=left;spacingLeft=6;fontStyle=5;" vertex="1" parent="kniY7JMG2TVg29DjpVdC-41">
          <mxGeometry x="30" width="270" height="30" as="geometry" />
        </mxCell>
        <mxCell id="kniY7JMG2TVg29DjpVdC-44" style="shape=partialRectangle;collapsible=0;dropTarget=0;pointerEvents=0;fillColor=none;points=[[0,0.5],[1,0.5]];portConstraint=eastwest;top=0;left=0;right=0;bottom=0;" vertex="1" parent="kniY7JMG2TVg29DjpVdC-40">
          <mxGeometry y="60" width="300" height="30" as="geometry" />
        </mxCell>
        <mxCell id="kniY7JMG2TVg29DjpVdC-45" value="FK1" style="shape=partialRectangle;overflow=hidden;connectable=0;fillColor=none;top=0;left=0;bottom=0;right=0;" vertex="1" parent="kniY7JMG2TVg29DjpVdC-44">
          <mxGeometry width="30" height="30" as="geometry" />
        </mxCell>
        <mxCell id="kniY7JMG2TVg29DjpVdC-46" value="user_id BIGINT UNSIGNED NOT NULL" style="shape=partialRectangle;overflow=hidden;connectable=0;fillColor=none;top=0;left=0;bottom=0;right=0;align=left;spacingLeft=6;" vertex="1" parent="kniY7JMG2TVg29DjpVdC-44">
          <mxGeometry x="30" width="270" height="30" as="geometry" />
        </mxCell>
        <mxCell id="kniY7JMG2TVg29DjpVdC-47" style="shape=partialRectangle;collapsible=0;dropTarget=0;pointerEvents=0;fillColor=none;points=[[0,0.5],[1,0.5]];portConstraint=eastwest;top=0;left=0;right=0;bottom=0;" vertex="1" parent="kniY7JMG2TVg29DjpVdC-40">
          <mxGeometry y="90" width="300" height="30" as="geometry" />
        </mxCell>
        <mxCell id="kniY7JMG2TVg29DjpVdC-48" style="shape=partialRectangle;overflow=hidden;connectable=0;fillColor=none;top=0;left=0;bottom=0;right=0;" vertex="1" parent="kniY7JMG2TVg29DjpVdC-47">
          <mxGeometry width="30" height="30" as="geometry" />
        </mxCell>
        <mxCell id="kniY7JMG2TVg29DjpVdC-49" value="name VARCHAR(255) NOT NULL" style="shape=partialRectangle;overflow=hidden;connectable=0;fillColor=none;top=0;left=0;bottom=0;right=0;align=left;spacingLeft=6;" vertex="1" parent="kniY7JMG2TVg29DjpVdC-47">
          <mxGeometry x="30" width="270" height="30" as="geometry" />
        </mxCell>
        <mxCell id="kniY7JMG2TVg29DjpVdC-50" value="" style="shape=partialRectangle;collapsible=0;dropTarget=0;pointerEvents=0;fillColor=none;points=[[0,0.5],[1,0.5]];portConstraint=eastwest;top=0;left=0;right=0;bottom=0;" vertex="1" parent="kniY7JMG2TVg29DjpVdC-40">
          <mxGeometry y="120" width="300" height="30" as="geometry" />
        </mxCell>
        <mxCell id="kniY7JMG2TVg29DjpVdC-51" value="" style="shape=partialRectangle;overflow=hidden;connectable=0;fillColor=none;top=0;left=0;bottom=0;right=0;" vertex="1" parent="kniY7JMG2TVg29DjpVdC-50">
          <mxGeometry width="30" height="30" as="geometry" />
        </mxCell>
        <mxCell id="kniY7JMG2TVg29DjpVdC-52" value="description TEXT NULL" style="shape=partialRectangle;overflow=hidden;connectable=0;fillColor=none;top=0;left=0;bottom=0;right=0;align=left;spacingLeft=6;" vertex="1" parent="kniY7JMG2TVg29DjpVdC-50">
          <mxGeometry x="30" width="270" height="30" as="geometry" />
        </mxCell>
        <mxCell id="kniY7JMG2TVg29DjpVdC-62" style="shape=partialRectangle;collapsible=0;dropTarget=0;pointerEvents=0;fillColor=none;points=[[0,0.5],[1,0.5]];portConstraint=eastwest;top=0;left=0;right=0;bottom=0;" vertex="1" parent="kniY7JMG2TVg29DjpVdC-40">
          <mxGeometry y="150" width="300" height="30" as="geometry" />
        </mxCell>
        <mxCell id="kniY7JMG2TVg29DjpVdC-63" style="shape=partialRectangle;overflow=hidden;connectable=0;fillColor=none;top=0;left=0;bottom=0;right=0;" vertex="1" parent="kniY7JMG2TVg29DjpVdC-62">
          <mxGeometry width="30" height="30" as="geometry" />
        </mxCell>
        <mxCell id="kniY7JMG2TVg29DjpVdC-64" value="start_date DATE NULL" style="shape=partialRectangle;overflow=hidden;connectable=0;fillColor=none;top=0;left=0;bottom=0;right=0;align=left;spacingLeft=6;" vertex="1" parent="kniY7JMG2TVg29DjpVdC-62">
          <mxGeometry x="30" width="270" height="30" as="geometry" />
        </mxCell>
        <mxCell id="kniY7JMG2TVg29DjpVdC-65" style="shape=partialRectangle;collapsible=0;dropTarget=0;pointerEvents=0;fillColor=none;points=[[0,0.5],[1,0.5]];portConstraint=eastwest;top=0;left=0;right=0;bottom=0;" vertex="1" parent="kniY7JMG2TVg29DjpVdC-40">
          <mxGeometry y="180" width="300" height="30" as="geometry" />
        </mxCell>
        <mxCell id="kniY7JMG2TVg29DjpVdC-66" style="shape=partialRectangle;overflow=hidden;connectable=0;fillColor=none;top=0;left=0;bottom=0;right=0;" vertex="1" parent="kniY7JMG2TVg29DjpVdC-65">
          <mxGeometry width="30" height="30" as="geometry" />
        </mxCell>
        <mxCell id="kniY7JMG2TVg29DjpVdC-67" value="end_date DATE NULL" style="shape=partialRectangle;overflow=hidden;connectable=0;fillColor=none;top=0;left=0;bottom=0;right=0;align=left;spacingLeft=6;" vertex="1" parent="kniY7JMG2TVg29DjpVdC-65">
          <mxGeometry x="30" width="270" height="30" as="geometry" />
        </mxCell>
        <mxCell id="kniY7JMG2TVg29DjpVdC-95" style="shape=partialRectangle;collapsible=0;dropTarget=0;pointerEvents=0;fillColor=none;points=[[0,0.5],[1,0.5]];portConstraint=eastwest;top=0;left=0;right=0;bottom=0;" vertex="1" parent="kniY7JMG2TVg29DjpVdC-40">
          <mxGeometry y="210" width="300" height="30" as="geometry" />
        </mxCell>
        <mxCell id="kniY7JMG2TVg29DjpVdC-96" style="shape=partialRectangle;overflow=hidden;connectable=0;fillColor=none;top=0;left=0;bottom=0;right=0;" vertex="1" parent="kniY7JMG2TVg29DjpVdC-95">
          <mxGeometry width="30" height="30" as="geometry" />
        </mxCell>
        <mxCell id="kniY7JMG2TVg29DjpVdC-97" value="days_total TINYINT NULL" style="shape=partialRectangle;overflow=hidden;connectable=0;fillColor=none;top=0;left=0;bottom=0;right=0;align=left;spacingLeft=6;" vertex="1" parent="kniY7JMG2TVg29DjpVdC-95">
          <mxGeometry x="30" width="270" height="30" as="geometry" />
        </mxCell>
        <mxCell id="kniY7JMG2TVg29DjpVdC-99" style="shape=partialRectangle;collapsible=0;dropTarget=0;pointerEvents=0;fillColor=none;points=[[0,0.5],[1,0.5]];portConstraint=eastwest;top=0;left=0;right=0;bottom=0;" vertex="1" parent="kniY7JMG2TVg29DjpVdC-40">
          <mxGeometry y="240" width="300" height="30" as="geometry" />
        </mxCell>
        <mxCell id="kniY7JMG2TVg29DjpVdC-100" style="shape=partialRectangle;overflow=hidden;connectable=0;fillColor=none;top=0;left=0;bottom=0;right=0;" vertex="1" parent="kniY7JMG2TVg29DjpVdC-99">
          <mxGeometry width="30" height="30" as="geometry" />
        </mxCell>
        <mxCell id="kniY7JMG2TVg29DjpVdC-101" value="average_amount_spent DECIMAL(10,8) NULL" style="shape=partialRectangle;overflow=hidden;connectable=0;fillColor=none;top=0;left=0;bottom=0;right=0;align=left;spacingLeft=6;" vertex="1" parent="kniY7JMG2TVg29DjpVdC-99">
          <mxGeometry x="30" width="270" height="30" as="geometry" />
        </mxCell>
        <mxCell id="kniY7JMG2TVg29DjpVdC-53" style="shape=partialRectangle;collapsible=0;dropTarget=0;pointerEvents=0;fillColor=none;points=[[0,0.5],[1,0.5]];portConstraint=eastwest;top=0;left=0;right=0;bottom=0;" vertex="1" parent="kniY7JMG2TVg29DjpVdC-40">
          <mxGeometry y="270" width="300" height="30" as="geometry" />
        </mxCell>
        <mxCell id="kniY7JMG2TVg29DjpVdC-54" style="shape=partialRectangle;overflow=hidden;connectable=0;fillColor=none;top=0;left=0;bottom=0;right=0;" vertex="1" parent="kniY7JMG2TVg29DjpVdC-53">
          <mxGeometry width="30" height="30" as="geometry" />
        </mxCell>
        <mxCell id="kniY7JMG2TVg29DjpVdC-55" value="created_at TIMESTAMP NOT NULL" style="shape=partialRectangle;overflow=hidden;connectable=0;fillColor=none;top=0;left=0;bottom=0;right=0;align=left;spacingLeft=6;" vertex="1" parent="kniY7JMG2TVg29DjpVdC-53">
          <mxGeometry x="30" width="270" height="30" as="geometry" />
        </mxCell>
        <mxCell id="kniY7JMG2TVg29DjpVdC-56" style="shape=partialRectangle;collapsible=0;dropTarget=0;pointerEvents=0;fillColor=none;points=[[0,0.5],[1,0.5]];portConstraint=eastwest;top=0;left=0;right=0;bottom=0;" vertex="1" parent="kniY7JMG2TVg29DjpVdC-40">
          <mxGeometry y="300" width="300" height="30" as="geometry" />
        </mxCell>
        <mxCell id="kniY7JMG2TVg29DjpVdC-57" style="shape=partialRectangle;overflow=hidden;connectable=0;fillColor=none;top=0;left=0;bottom=0;right=0;" vertex="1" parent="kniY7JMG2TVg29DjpVdC-56">
          <mxGeometry width="30" height="30" as="geometry" />
        </mxCell>
        <mxCell id="kniY7JMG2TVg29DjpVdC-58" value="updated_at TIMESTAMP NOT NULL" style="shape=partialRectangle;overflow=hidden;connectable=0;fillColor=none;top=0;left=0;bottom=0;right=0;align=left;spacingLeft=6;" vertex="1" parent="kniY7JMG2TVg29DjpVdC-56">
          <mxGeometry x="30" width="270" height="30" as="geometry" />
        </mxCell>
        <mxCell id="kniY7JMG2TVg29DjpVdC-59" style="shape=partialRectangle;collapsible=0;dropTarget=0;pointerEvents=0;fillColor=none;points=[[0,0.5],[1,0.5]];portConstraint=eastwest;top=0;left=0;right=0;bottom=0;" vertex="1" parent="kniY7JMG2TVg29DjpVdC-40">
          <mxGeometry y="330" width="300" height="30" as="geometry" />
        </mxCell>
        <mxCell id="kniY7JMG2TVg29DjpVdC-60" style="shape=partialRectangle;overflow=hidden;connectable=0;fillColor=none;top=0;left=0;bottom=0;right=0;" vertex="1" parent="kniY7JMG2TVg29DjpVdC-59">
          <mxGeometry width="30" height="30" as="geometry" />
        </mxCell>
        <mxCell id="kniY7JMG2TVg29DjpVdC-61" value="deleted_at TIMESTAMP NOT NULL" style="shape=partialRectangle;overflow=hidden;connectable=0;fillColor=none;top=0;left=0;bottom=0;right=0;align=left;spacingLeft=6;" vertex="1" parent="kniY7JMG2TVg29DjpVdC-59">
          <mxGeometry x="30" width="270" height="30" as="geometry" />
        </mxCell>
        <mxCell id="kniY7JMG2TVg29DjpVdC-68" value="trip_days_cities" style="shape=table;startSize=30;container=1;collapsible=1;childLayout=tableLayout;fixedRows=1;rowLines=0;fontStyle=1;align=center;resizeLast=1;" vertex="1" parent="1">
          <mxGeometry x="-190" y="330" width="280" height="190" as="geometry">
            <mxRectangle x="120" y="120" width="60" height="30" as="alternateBounds" />
          </mxGeometry>
        </mxCell>
        <mxCell id="kniY7JMG2TVg29DjpVdC-69" value="" style="shape=partialRectangle;collapsible=0;dropTarget=0;pointerEvents=0;fillColor=none;points=[[0,0.5],[1,0.5]];portConstraint=eastwest;top=0;left=0;right=0;bottom=1;" vertex="1" parent="kniY7JMG2TVg29DjpVdC-68">
          <mxGeometry y="30" width="280" height="30" as="geometry" />
        </mxCell>
        <mxCell id="kniY7JMG2TVg29DjpVdC-70" value="PK" style="shape=partialRectangle;overflow=hidden;connectable=0;fillColor=none;top=0;left=0;bottom=0;right=0;fontStyle=1;" vertex="1" parent="kniY7JMG2TVg29DjpVdC-69">
          <mxGeometry width="30" height="30" as="geometry" />
        </mxCell>
        <mxCell id="kniY7JMG2TVg29DjpVdC-71" value="id BIGINT UNSIGNEDÂ NOT NULL" style="shape=partialRectangle;overflow=hidden;connectable=0;fillColor=none;top=0;left=0;bottom=0;right=0;align=left;spacingLeft=6;fontStyle=5;" vertex="1" parent="kniY7JMG2TVg29DjpVdC-69">
          <mxGeometry x="30" width="250" height="30" as="geometry" />
        </mxCell>
        <mxCell id="kniY7JMG2TVg29DjpVdC-72" style="shape=partialRectangle;collapsible=0;dropTarget=0;pointerEvents=0;fillColor=none;points=[[0,0.5],[1,0.5]];portConstraint=eastwest;top=0;left=0;right=0;bottom=0;" vertex="1" parent="kniY7JMG2TVg29DjpVdC-68">
          <mxGeometry y="60" width="280" height="30" as="geometry" />
        </mxCell>
        <mxCell id="kniY7JMG2TVg29DjpVdC-73" value="FK1" style="shape=partialRectangle;overflow=hidden;connectable=0;fillColor=none;top=0;left=0;bottom=0;right=0;" vertex="1" parent="kniY7JMG2TVg29DjpVdC-72">
          <mxGeometry width="30" height="30" as="geometry" />
        </mxCell>
        <mxCell id="kniY7JMG2TVg29DjpVdC-74" value="trip_day_id BIGINT UNSIGNED NOT NULL" style="shape=partialRectangle;overflow=hidden;connectable=0;fillColor=none;top=0;left=0;bottom=0;right=0;align=left;spacingLeft=6;" vertex="1" parent="kniY7JMG2TVg29DjpVdC-72">
          <mxGeometry x="30" width="250" height="30" as="geometry" />
        </mxCell>
        <mxCell id="kniY7JMG2TVg29DjpVdC-75" value="" style="shape=partialRectangle;collapsible=0;dropTarget=0;pointerEvents=0;fillColor=none;points=[[0,0.5],[1,0.5]];portConstraint=eastwest;top=0;left=0;right=0;bottom=0;" vertex="1" parent="kniY7JMG2TVg29DjpVdC-68">
          <mxGeometry y="90" width="280" height="30" as="geometry" />
        </mxCell>
        <mxCell id="kniY7JMG2TVg29DjpVdC-76" value="" style="shape=partialRectangle;overflow=hidden;connectable=0;fillColor=none;top=0;left=0;bottom=0;right=0;" vertex="1" parent="kniY7JMG2TVg29DjpVdC-75">
          <mxGeometry width="30" height="30" as="geometry" />
        </mxCell>
        <mxCell id="kniY7JMG2TVg29DjpVdC-77" value="city_id BIGINT UNSIGNED NOT NULL" style="shape=partialRectangle;overflow=hidden;connectable=0;fillColor=none;top=0;left=0;bottom=0;right=0;align=left;spacingLeft=6;" vertex="1" parent="kniY7JMG2TVg29DjpVdC-75">
          <mxGeometry x="30" width="250" height="30" as="geometry" />
        </mxCell>
        <mxCell id="kniY7JMG2TVg29DjpVdC-81" style="shape=partialRectangle;collapsible=0;dropTarget=0;pointerEvents=0;fillColor=none;points=[[0,0.5],[1,0.5]];portConstraint=eastwest;top=0;left=0;right=0;bottom=0;" vertex="1" parent="kniY7JMG2TVg29DjpVdC-68">
          <mxGeometry y="120" width="280" height="30" as="geometry" />
        </mxCell>
        <mxCell id="kniY7JMG2TVg29DjpVdC-82" style="shape=partialRectangle;overflow=hidden;connectable=0;fillColor=none;top=0;left=0;bottom=0;right=0;" vertex="1" parent="kniY7JMG2TVg29DjpVdC-81">
          <mxGeometry width="30" height="30" as="geometry" />
        </mxCell>
        <mxCell id="kniY7JMG2TVg29DjpVdC-83" value="created_at TIMESTAMP NOT NULL" style="shape=partialRectangle;overflow=hidden;connectable=0;fillColor=none;top=0;left=0;bottom=0;right=0;align=left;spacingLeft=6;" vertex="1" parent="kniY7JMG2TVg29DjpVdC-81">
          <mxGeometry x="30" width="250" height="30" as="geometry" />
        </mxCell>
        <mxCell id="kniY7JMG2TVg29DjpVdC-87" style="shape=partialRectangle;collapsible=0;dropTarget=0;pointerEvents=0;fillColor=none;points=[[0,0.5],[1,0.5]];portConstraint=eastwest;top=0;left=0;right=0;bottom=0;" vertex="1" parent="kniY7JMG2TVg29DjpVdC-68">
          <mxGeometry y="150" width="280" height="30" as="geometry" />
        </mxCell>
        <mxCell id="kniY7JMG2TVg29DjpVdC-88" style="shape=partialRectangle;overflow=hidden;connectable=0;fillColor=none;top=0;left=0;bottom=0;right=0;" vertex="1" parent="kniY7JMG2TVg29DjpVdC-87">
          <mxGeometry width="30" height="30" as="geometry" />
        </mxCell>
        <mxCell id="kniY7JMG2TVg29DjpVdC-89" value="deleted_at TIMESTAMP NOT NULL" style="shape=partialRectangle;overflow=hidden;connectable=0;fillColor=none;top=0;left=0;bottom=0;right=0;align=left;spacingLeft=6;" vertex="1" parent="kniY7JMG2TVg29DjpVdC-87">
          <mxGeometry x="30" width="250" height="30" as="geometry" />
        </mxCell>
        <mxCell id="kniY7JMG2TVg29DjpVdC-93" style="edgeStyle=orthogonalEdgeStyle;orthogonalLoop=1;jettySize=auto;html=1;startArrow=ERone;startFill=0;endArrow=ERmany;endFill=0;" edge="1" parent="1" source="kniY7JMG2TVg29DjpVdC-5" target="kniY7JMG2TVg29DjpVdC-72">
          <mxGeometry relative="1" as="geometry" />
        </mxCell>
        <mxCell id="kniY7JMG2TVg29DjpVdC-102" value="favorites" style="shape=table;startSize=30;container=1;collapsible=1;childLayout=tableLayout;fixedRows=1;rowLines=0;fontStyle=1;align=center;resizeLast=1;" vertex="1" parent="1">
          <mxGeometry x="210" y="190" width="290" height="250" as="geometry">
            <mxRectangle x="120" y="120" width="60" height="30" as="alternateBounds" />
          </mxGeometry>
        </mxCell>
        <mxCell id="kniY7JMG2TVg29DjpVdC-103" value="" style="shape=partialRectangle;collapsible=0;dropTarget=0;pointerEvents=0;fillColor=none;points=[[0,0.5],[1,0.5]];portConstraint=eastwest;top=0;left=0;right=0;bottom=1;" vertex="1" parent="kniY7JMG2TVg29DjpVdC-102">
          <mxGeometry y="30" width="290" height="30" as="geometry" />
        </mxCell>
        <mxCell id="kniY7JMG2TVg29DjpVdC-104" value="PK" style="shape=partialRectangle;overflow=hidden;connectable=0;fillColor=none;top=0;left=0;bottom=0;right=0;fontStyle=1;" vertex="1" parent="kniY7JMG2TVg29DjpVdC-103">
          <mxGeometry width="30" height="30" as="geometry" />
        </mxCell>
        <mxCell id="kniY7JMG2TVg29DjpVdC-105" value="id BIGINT UNSIGNEDÂ NOT NULL" style="shape=partialRectangle;overflow=hidden;connectable=0;fillColor=none;top=0;left=0;bottom=0;right=0;align=left;spacingLeft=6;fontStyle=5;" vertex="1" parent="kniY7JMG2TVg29DjpVdC-103">
          <mxGeometry x="30" width="260" height="30" as="geometry" />
        </mxCell>
        <mxCell id="kniY7JMG2TVg29DjpVdC-106" style="shape=partialRectangle;collapsible=0;dropTarget=0;pointerEvents=0;fillColor=none;points=[[0,0.5],[1,0.5]];portConstraint=eastwest;top=0;left=0;right=0;bottom=0;" vertex="1" parent="kniY7JMG2TVg29DjpVdC-102">
          <mxGeometry y="60" width="290" height="30" as="geometry" />
        </mxCell>
        <mxCell id="kniY7JMG2TVg29DjpVdC-107" style="shape=partialRectangle;overflow=hidden;connectable=0;fillColor=none;top=0;left=0;bottom=0;right=0;" vertex="1" parent="kniY7JMG2TVg29DjpVdC-106">
          <mxGeometry width="30" height="30" as="geometry" />
        </mxCell>
        <mxCell id="kniY7JMG2TVg29DjpVdC-108" value="user_id BIGINT UNSIGNED NOT NULL" style="shape=partialRectangle;overflow=hidden;connectable=0;fillColor=none;top=0;left=0;bottom=0;right=0;align=left;spacingLeft=6;" vertex="1" parent="kniY7JMG2TVg29DjpVdC-106">
          <mxGeometry x="30" width="260" height="30" as="geometry" />
        </mxCell>
        <mxCell id="kniY7JMG2TVg29DjpVdC-109" value="" style="shape=partialRectangle;collapsible=0;dropTarget=0;pointerEvents=0;fillColor=none;points=[[0,0.5],[1,0.5]];portConstraint=eastwest;top=0;left=0;right=0;bottom=0;" vertex="1" parent="kniY7JMG2TVg29DjpVdC-102">
          <mxGeometry y="90" width="290" height="30" as="geometry" />
        </mxCell>
        <mxCell id="kniY7JMG2TVg29DjpVdC-110" value="" style="shape=partialRectangle;overflow=hidden;connectable=0;fillColor=none;top=0;left=0;bottom=0;right=0;" vertex="1" parent="kniY7JMG2TVg29DjpVdC-109">
          <mxGeometry width="30" height="30" as="geometry" />
        </mxCell>
        <mxCell id="kniY7JMG2TVg29DjpVdC-111" value="favoritable_id BIGINT UNSIGNED NOT NULL" style="shape=partialRectangle;overflow=hidden;connectable=0;fillColor=none;top=0;left=0;bottom=0;right=0;align=left;spacingLeft=6;" vertex="1" parent="kniY7JMG2TVg29DjpVdC-109">
          <mxGeometry x="30" width="260" height="30" as="geometry" />
        </mxCell>
        <mxCell id="kniY7JMG2TVg29DjpVdC-112" style="shape=partialRectangle;collapsible=0;dropTarget=0;pointerEvents=0;fillColor=none;points=[[0,0.5],[1,0.5]];portConstraint=eastwest;top=0;left=0;right=0;bottom=0;" vertex="1" parent="kniY7JMG2TVg29DjpVdC-102">
          <mxGeometry y="120" width="290" height="30" as="geometry" />
        </mxCell>
        <mxCell id="kniY7JMG2TVg29DjpVdC-113" style="shape=partialRectangle;overflow=hidden;connectable=0;fillColor=none;top=0;left=0;bottom=0;right=0;" vertex="1" parent="kniY7JMG2TVg29DjpVdC-112">
          <mxGeometry width="30" height="30" as="geometry" />
        </mxCell>
        <mxCell id="kniY7JMG2TVg29DjpVdC-114" value="favoritable_type VARCHAR(255) NOT NULL" style="shape=partialRectangle;overflow=hidden;connectable=0;fillColor=none;top=0;left=0;bottom=0;right=0;align=left;spacingLeft=6;" vertex="1" parent="kniY7JMG2TVg29DjpVdC-112">
          <mxGeometry x="30" width="260" height="30" as="geometry" />
        </mxCell>
        <mxCell id="kniY7JMG2TVg29DjpVdC-121" style="shape=partialRectangle;collapsible=0;dropTarget=0;pointerEvents=0;fillColor=none;points=[[0,0.5],[1,0.5]];portConstraint=eastwest;top=0;left=0;right=0;bottom=0;" vertex="1" parent="kniY7JMG2TVg29DjpVdC-102">
          <mxGeometry y="150" width="290" height="30" as="geometry" />
        </mxCell>
        <mxCell id="kniY7JMG2TVg29DjpVdC-122" style="shape=partialRectangle;overflow=hidden;connectable=0;fillColor=none;top=0;left=0;bottom=0;right=0;" vertex="1" parent="kniY7JMG2TVg29DjpVdC-121">
          <mxGeometry width="30" height="30" as="geometry" />
        </mxCell>
        <mxCell id="kniY7JMG2TVg29DjpVdC-123" value="created_at TIMESTAMP NOT NULL" style="shape=partialRectangle;overflow=hidden;connectable=0;fillColor=none;top=0;left=0;bottom=0;right=0;align=left;spacingLeft=6;" vertex="1" parent="kniY7JMG2TVg29DjpVdC-121">
          <mxGeometry x="30" width="260" height="30" as="geometry" />
        </mxCell>
        <mxCell id="kniY7JMG2TVg29DjpVdC-124" style="shape=partialRectangle;collapsible=0;dropTarget=0;pointerEvents=0;fillColor=none;points=[[0,0.5],[1,0.5]];portConstraint=eastwest;top=0;left=0;right=0;bottom=0;" vertex="1" parent="kniY7JMG2TVg29DjpVdC-102">
          <mxGeometry y="180" width="290" height="30" as="geometry" />
        </mxCell>
        <mxCell id="kniY7JMG2TVg29DjpVdC-125" style="shape=partialRectangle;overflow=hidden;connectable=0;fillColor=none;top=0;left=0;bottom=0;right=0;" vertex="1" parent="kniY7JMG2TVg29DjpVdC-124">
          <mxGeometry width="30" height="30" as="geometry" />
        </mxCell>
        <mxCell id="kniY7JMG2TVg29DjpVdC-126" value="updated_at TIMESTAMP NOT NULL" style="shape=partialRectangle;overflow=hidden;connectable=0;fillColor=none;top=0;left=0;bottom=0;right=0;align=left;spacingLeft=6;" vertex="1" parent="kniY7JMG2TVg29DjpVdC-124">
          <mxGeometry x="30" width="260" height="30" as="geometry" />
        </mxCell>
        <mxCell id="kniY7JMG2TVg29DjpVdC-127" style="shape=partialRectangle;collapsible=0;dropTarget=0;pointerEvents=0;fillColor=none;points=[[0,0.5],[1,0.5]];portConstraint=eastwest;top=0;left=0;right=0;bottom=0;" vertex="1" parent="kniY7JMG2TVg29DjpVdC-102">
          <mxGeometry y="210" width="290" height="30" as="geometry" />
        </mxCell>
        <mxCell id="kniY7JMG2TVg29DjpVdC-128" style="shape=partialRectangle;overflow=hidden;connectable=0;fillColor=none;top=0;left=0;bottom=0;right=0;" vertex="1" parent="kniY7JMG2TVg29DjpVdC-127">
          <mxGeometry width="30" height="30" as="geometry" />
        </mxCell>
        <mxCell id="kniY7JMG2TVg29DjpVdC-129" value="deleted_at TIMESTAMP NOT NULL" style="shape=partialRectangle;overflow=hidden;connectable=0;fillColor=none;top=0;left=0;bottom=0;right=0;align=left;spacingLeft=6;" vertex="1" parent="kniY7JMG2TVg29DjpVdC-127">
          <mxGeometry x="30" width="260" height="30" as="geometry" />
        </mxCell>
        <mxCell id="kniY7JMG2TVg29DjpVdC-133" style="edgeStyle=orthogonalEdgeStyle;orthogonalLoop=1;jettySize=auto;html=1;entryX=0;entryY=0.5;entryDx=0;entryDy=0;startArrow=ERone;startFill=0;endArrow=ERmany;endFill=0;" edge="1" parent="1" source="kniY7JMG2TVg29DjpVdC-109" target="xltGa2Rw6O9IPXyMZN5Q-25">
          <mxGeometry relative="1" as="geometry" />
        </mxCell>
        <mxCell id="kniY7JMG2TVg29DjpVdC-136" value="place_reviews" style="shape=table;startSize=30;container=1;collapsible=1;childLayout=tableLayout;fixedRows=1;rowLines=0;fontStyle=1;align=center;resizeLast=1;" vertex="1" parent="1">
          <mxGeometry x="240" y="670" width="270" height="280" as="geometry">
            <mxRectangle x="120" y="120" width="60" height="30" as="alternateBounds" />
          </mxGeometry>
        </mxCell>
        <mxCell id="kniY7JMG2TVg29DjpVdC-137" value="" style="shape=partialRectangle;collapsible=0;dropTarget=0;pointerEvents=0;fillColor=none;points=[[0,0.5],[1,0.5]];portConstraint=eastwest;top=0;left=0;right=0;bottom=1;" vertex="1" parent="kniY7JMG2TVg29DjpVdC-136">
          <mxGeometry y="30" width="270" height="30" as="geometry" />
        </mxCell>
        <mxCell id="kniY7JMG2TVg29DjpVdC-138" value="PK" style="shape=partialRectangle;overflow=hidden;connectable=0;fillColor=none;top=0;left=0;bottom=0;right=0;fontStyle=1;" vertex="1" parent="kniY7JMG2TVg29DjpVdC-137">
          <mxGeometry width="30" height="30" as="geometry" />
        </mxCell>
        <mxCell id="kniY7JMG2TVg29DjpVdC-139" value="id BIGINT UNSIGNEDÂ NOT NULL" style="shape=partialRectangle;overflow=hidden;connectable=0;fillColor=none;top=0;left=0;bottom=0;right=0;align=left;spacingLeft=6;fontStyle=5;" vertex="1" parent="kniY7JMG2TVg29DjpVdC-137">
          <mxGeometry x="30" width="240" height="30" as="geometry" />
        </mxCell>
        <mxCell id="kniY7JMG2TVg29DjpVdC-218" style="shape=partialRectangle;collapsible=0;dropTarget=0;pointerEvents=0;fillColor=none;points=[[0,0.5],[1,0.5]];portConstraint=eastwest;top=0;left=0;right=0;bottom=0;" vertex="1" parent="kniY7JMG2TVg29DjpVdC-136">
          <mxGeometry y="60" width="270" height="30" as="geometry" />
        </mxCell>
        <mxCell id="kniY7JMG2TVg29DjpVdC-219" value="FK1" style="shape=partialRectangle;overflow=hidden;connectable=0;fillColor=none;top=0;left=0;bottom=0;right=0;" vertex="1" parent="kniY7JMG2TVg29DjpVdC-218">
          <mxGeometry width="30" height="30" as="geometry" />
        </mxCell>
        <mxCell id="kniY7JMG2TVg29DjpVdC-220" value="place_id BIGINT UNSIGNED NOT NULL" style="shape=partialRectangle;overflow=hidden;connectable=0;fillColor=none;top=0;left=0;bottom=0;right=0;align=left;spacingLeft=6;" vertex="1" parent="kniY7JMG2TVg29DjpVdC-218">
          <mxGeometry x="30" width="240" height="30" as="geometry" />
        </mxCell>
        <mxCell id="kniY7JMG2TVg29DjpVdC-140" value="" style="shape=partialRectangle;collapsible=0;dropTarget=0;pointerEvents=0;fillColor=none;points=[[0,0.5],[1,0.5]];portConstraint=eastwest;top=0;left=0;right=0;bottom=0;" vertex="1" parent="kniY7JMG2TVg29DjpVdC-136">
          <mxGeometry y="90" width="270" height="30" as="geometry" />
        </mxCell>
        <mxCell id="kniY7JMG2TVg29DjpVdC-141" value="FK2" style="shape=partialRectangle;overflow=hidden;connectable=0;fillColor=none;top=0;left=0;bottom=0;right=0;" vertex="1" parent="kniY7JMG2TVg29DjpVdC-140">
          <mxGeometry width="30" height="30" as="geometry" />
        </mxCell>
        <mxCell id="kniY7JMG2TVg29DjpVdC-142" value="user_id BIGINT UNSIGNED NOT NULL" style="shape=partialRectangle;overflow=hidden;connectable=0;fillColor=none;top=0;left=0;bottom=0;right=0;align=left;spacingLeft=6;" vertex="1" parent="kniY7JMG2TVg29DjpVdC-140">
          <mxGeometry x="30" width="240" height="30" as="geometry" />
        </mxCell>
        <mxCell id="kniY7JMG2TVg29DjpVdC-143" style="shape=partialRectangle;collapsible=0;dropTarget=0;pointerEvents=0;fillColor=none;points=[[0,0.5],[1,0.5]];portConstraint=eastwest;top=0;left=0;right=0;bottom=0;" vertex="1" parent="kniY7JMG2TVg29DjpVdC-136">
          <mxGeometry y="120" width="270" height="30" as="geometry" />
        </mxCell>
        <mxCell id="kniY7JMG2TVg29DjpVdC-144" style="shape=partialRectangle;overflow=hidden;connectable=0;fillColor=none;top=0;left=0;bottom=0;right=0;" vertex="1" parent="kniY7JMG2TVg29DjpVdC-143">
          <mxGeometry width="30" height="30" as="geometry" />
        </mxCell>
        <mxCell id="kniY7JMG2TVg29DjpVdC-145" value="score TINYINT(1) UNSIGNED NOT NULL" style="shape=partialRectangle;overflow=hidden;connectable=0;fillColor=none;top=0;left=0;bottom=0;right=0;align=left;spacingLeft=6;" vertex="1" parent="kniY7JMG2TVg29DjpVdC-143">
          <mxGeometry x="30" width="240" height="30" as="geometry" />
        </mxCell>
        <mxCell id="kniY7JMG2TVg29DjpVdC-146" style="shape=partialRectangle;collapsible=0;dropTarget=0;pointerEvents=0;fillColor=none;points=[[0,0.5],[1,0.5]];portConstraint=eastwest;top=0;left=0;right=0;bottom=0;" vertex="1" parent="kniY7JMG2TVg29DjpVdC-136">
          <mxGeometry y="150" width="270" height="30" as="geometry" />
        </mxCell>
        <mxCell id="kniY7JMG2TVg29DjpVdC-147" style="shape=partialRectangle;overflow=hidden;connectable=0;fillColor=none;top=0;left=0;bottom=0;right=0;" vertex="1" parent="kniY7JMG2TVg29DjpVdC-146">
          <mxGeometry width="30" height="30" as="geometry" />
        </mxCell>
        <mxCell id="kniY7JMG2TVg29DjpVdC-148" value="comment TEXT NULL" style="shape=partialRectangle;overflow=hidden;connectable=0;fillColor=none;top=0;left=0;bottom=0;right=0;align=left;spacingLeft=6;" vertex="1" parent="kniY7JMG2TVg29DjpVdC-146">
          <mxGeometry x="30" width="240" height="30" as="geometry" />
        </mxCell>
        <mxCell id="kniY7JMG2TVg29DjpVdC-155" style="shape=partialRectangle;collapsible=0;dropTarget=0;pointerEvents=0;fillColor=none;points=[[0,0.5],[1,0.5]];portConstraint=eastwest;top=0;left=0;right=0;bottom=0;" vertex="1" parent="kniY7JMG2TVg29DjpVdC-136">
          <mxGeometry y="180" width="270" height="30" as="geometry" />
        </mxCell>
        <mxCell id="kniY7JMG2TVg29DjpVdC-156" value="" style="shape=partialRectangle;overflow=hidden;connectable=0;fillColor=none;top=0;left=0;bottom=0;right=0;" vertex="1" parent="kniY7JMG2TVg29DjpVdC-155">
          <mxGeometry width="30" height="30" as="geometry" />
        </mxCell>
        <mxCell id="kniY7JMG2TVg29DjpVdC-157" value="created_at TIMESTAMP NOT NULL" style="shape=partialRectangle;overflow=hidden;connectable=0;fillColor=none;top=0;left=0;bottom=0;right=0;align=left;spacingLeft=6;" vertex="1" parent="kniY7JMG2TVg29DjpVdC-155">
          <mxGeometry x="30" width="240" height="30" as="geometry" />
        </mxCell>
        <mxCell id="kniY7JMG2TVg29DjpVdC-158" style="shape=partialRectangle;collapsible=0;dropTarget=0;pointerEvents=0;fillColor=none;points=[[0,0.5],[1,0.5]];portConstraint=eastwest;top=0;left=0;right=0;bottom=0;" vertex="1" parent="kniY7JMG2TVg29DjpVdC-136">
          <mxGeometry y="210" width="270" height="30" as="geometry" />
        </mxCell>
        <mxCell id="kniY7JMG2TVg29DjpVdC-159" value="" style="shape=partialRectangle;overflow=hidden;connectable=0;fillColor=none;top=0;left=0;bottom=0;right=0;" vertex="1" parent="kniY7JMG2TVg29DjpVdC-158">
          <mxGeometry width="30" height="30" as="geometry" />
        </mxCell>
        <mxCell id="kniY7JMG2TVg29DjpVdC-160" value="updated_at TIMESTAMP NOT NULL" style="shape=partialRectangle;overflow=hidden;connectable=0;fillColor=none;top=0;left=0;bottom=0;right=0;align=left;spacingLeft=6;" vertex="1" parent="kniY7JMG2TVg29DjpVdC-158">
          <mxGeometry x="30" width="240" height="30" as="geometry" />
        </mxCell>
        <mxCell id="kniY7JMG2TVg29DjpVdC-161" style="shape=partialRectangle;collapsible=0;dropTarget=0;pointerEvents=0;fillColor=none;points=[[0,0.5],[1,0.5]];portConstraint=eastwest;top=0;left=0;right=0;bottom=0;" vertex="1" parent="kniY7JMG2TVg29DjpVdC-136">
          <mxGeometry y="240" width="270" height="30" as="geometry" />
        </mxCell>
        <mxCell id="kniY7JMG2TVg29DjpVdC-162" value="" style="shape=partialRectangle;overflow=hidden;connectable=0;fillColor=none;top=0;left=0;bottom=0;right=0;" vertex="1" parent="kniY7JMG2TVg29DjpVdC-161">
          <mxGeometry width="30" height="30" as="geometry" />
        </mxCell>
        <mxCell id="kniY7JMG2TVg29DjpVdC-163" value="deleted_at TIMESTAMP NOT NULL" style="shape=partialRectangle;overflow=hidden;connectable=0;fillColor=none;top=0;left=0;bottom=0;right=0;align=left;spacingLeft=6;" vertex="1" parent="kniY7JMG2TVg29DjpVdC-161">
          <mxGeometry x="30" width="240" height="30" as="geometry" />
        </mxCell>
        <mxCell id="kniY7JMG2TVg29DjpVdC-164" value="places" style="shape=table;startSize=30;container=1;collapsible=1;childLayout=tableLayout;fixedRows=1;rowLines=0;fontStyle=1;align=center;resizeLast=1;" vertex="1" parent="1">
          <mxGeometry x="-240" y="650" width="260" height="250" as="geometry">
            <mxRectangle x="120" y="120" width="60" height="30" as="alternateBounds" />
          </mxGeometry>
        </mxCell>
        <mxCell id="kniY7JMG2TVg29DjpVdC-165" value="" style="shape=partialRectangle;collapsible=0;dropTarget=0;pointerEvents=0;fillColor=none;points=[[0,0.5],[1,0.5]];portConstraint=eastwest;top=0;left=0;right=0;bottom=1;" vertex="1" parent="kniY7JMG2TVg29DjpVdC-164">
          <mxGeometry y="30" width="260" height="30" as="geometry" />
        </mxCell>
        <mxCell id="kniY7JMG2TVg29DjpVdC-166" value="PK" style="shape=partialRectangle;overflow=hidden;connectable=0;fillColor=none;top=0;left=0;bottom=0;right=0;fontStyle=1;" vertex="1" parent="kniY7JMG2TVg29DjpVdC-165">
          <mxGeometry width="30" height="30" as="geometry" />
        </mxCell>
        <mxCell id="kniY7JMG2TVg29DjpVdC-167" value="id BIGINT UNSIGNEDÂ NOT NULL" style="shape=partialRectangle;overflow=hidden;connectable=0;fillColor=none;top=0;left=0;bottom=0;right=0;align=left;spacingLeft=6;fontStyle=5;" vertex="1" parent="kniY7JMG2TVg29DjpVdC-165">
          <mxGeometry x="30" width="230" height="30" as="geometry" />
        </mxCell>
        <mxCell id="kniY7JMG2TVg29DjpVdC-174" style="shape=partialRectangle;collapsible=0;dropTarget=0;pointerEvents=0;fillColor=none;points=[[0,0.5],[1,0.5]];portConstraint=eastwest;top=0;left=0;right=0;bottom=0;" vertex="1" parent="kniY7JMG2TVg29DjpVdC-164">
          <mxGeometry y="60" width="260" height="30" as="geometry" />
        </mxCell>
        <mxCell id="kniY7JMG2TVg29DjpVdC-175" value="FK1" style="shape=partialRectangle;overflow=hidden;connectable=0;fillColor=none;top=0;left=0;bottom=0;right=0;" vertex="1" parent="kniY7JMG2TVg29DjpVdC-174">
          <mxGeometry width="30" height="30" as="geometry" />
        </mxCell>
        <mxCell id="kniY7JMG2TVg29DjpVdC-176" value="city_id BIGINT UNSIGNED NOT NULL" style="shape=partialRectangle;overflow=hidden;connectable=0;fillColor=none;top=0;left=0;bottom=0;right=0;align=left;spacingLeft=6;" vertex="1" parent="kniY7JMG2TVg29DjpVdC-174">
          <mxGeometry x="30" width="230" height="30" as="geometry" />
        </mxCell>
        <mxCell id="kniY7JMG2TVg29DjpVdC-168" value="" style="shape=partialRectangle;collapsible=0;dropTarget=0;pointerEvents=0;fillColor=none;points=[[0,0.5],[1,0.5]];portConstraint=eastwest;top=0;left=0;right=0;bottom=0;" vertex="1" parent="kniY7JMG2TVg29DjpVdC-164">
          <mxGeometry y="90" width="260" height="30" as="geometry" />
        </mxCell>
        <mxCell id="kniY7JMG2TVg29DjpVdC-169" value="" style="shape=partialRectangle;overflow=hidden;connectable=0;fillColor=none;top=0;left=0;bottom=0;right=0;" vertex="1" parent="kniY7JMG2TVg29DjpVdC-168">
          <mxGeometry width="30" height="30" as="geometry" />
        </mxCell>
        <mxCell id="kniY7JMG2TVg29DjpVdC-170" value="description TEXT NULL" style="shape=partialRectangle;overflow=hidden;connectable=0;fillColor=none;top=0;left=0;bottom=0;right=0;align=left;spacingLeft=6;" vertex="1" parent="kniY7JMG2TVg29DjpVdC-168">
          <mxGeometry x="30" width="230" height="30" as="geometry" />
        </mxCell>
        <mxCell id="kniY7JMG2TVg29DjpVdC-171" style="shape=partialRectangle;collapsible=0;dropTarget=0;pointerEvents=0;fillColor=none;points=[[0,0.5],[1,0.5]];portConstraint=eastwest;top=0;left=0;right=0;bottom=0;" vertex="1" parent="kniY7JMG2TVg29DjpVdC-164">
          <mxGeometry y="120" width="260" height="30" as="geometry" />
        </mxCell>
        <mxCell id="kniY7JMG2TVg29DjpVdC-172" style="shape=partialRectangle;overflow=hidden;connectable=0;fillColor=none;top=0;left=0;bottom=0;right=0;" vertex="1" parent="kniY7JMG2TVg29DjpVdC-171">
          <mxGeometry width="30" height="30" as="geometry" />
        </mxCell>
        <mxCell id="kniY7JMG2TVg29DjpVdC-173" value="score TINYINT(1) UNSIGNED NULL" style="shape=partialRectangle;overflow=hidden;connectable=0;fillColor=none;top=0;left=0;bottom=0;right=0;align=left;spacingLeft=6;" vertex="1" parent="kniY7JMG2TVg29DjpVdC-171">
          <mxGeometry x="30" width="230" height="30" as="geometry" />
        </mxCell>
        <mxCell id="kniY7JMG2TVg29DjpVdC-183" style="shape=partialRectangle;collapsible=0;dropTarget=0;pointerEvents=0;fillColor=none;points=[[0,0.5],[1,0.5]];portConstraint=eastwest;top=0;left=0;right=0;bottom=0;" vertex="1" parent="kniY7JMG2TVg29DjpVdC-164">
          <mxGeometry y="150" width="260" height="30" as="geometry" />
        </mxCell>
        <mxCell id="kniY7JMG2TVg29DjpVdC-184" value="" style="shape=partialRectangle;overflow=hidden;connectable=0;fillColor=none;top=0;left=0;bottom=0;right=0;" vertex="1" parent="kniY7JMG2TVg29DjpVdC-183">
          <mxGeometry width="30" height="30" as="geometry" />
        </mxCell>
        <mxCell id="kniY7JMG2TVg29DjpVdC-185" value="created_at TIMESTAMP NOT NULL" style="shape=partialRectangle;overflow=hidden;connectable=0;fillColor=none;top=0;left=0;bottom=0;right=0;align=left;spacingLeft=6;" vertex="1" parent="kniY7JMG2TVg29DjpVdC-183">
          <mxGeometry x="30" width="230" height="30" as="geometry" />
        </mxCell>
        <mxCell id="kniY7JMG2TVg29DjpVdC-186" style="shape=partialRectangle;collapsible=0;dropTarget=0;pointerEvents=0;fillColor=none;points=[[0,0.5],[1,0.5]];portConstraint=eastwest;top=0;left=0;right=0;bottom=0;" vertex="1" parent="kniY7JMG2TVg29DjpVdC-164">
          <mxGeometry y="180" width="260" height="30" as="geometry" />
        </mxCell>
        <mxCell id="kniY7JMG2TVg29DjpVdC-187" value="" style="shape=partialRectangle;overflow=hidden;connectable=0;fillColor=none;top=0;left=0;bottom=0;right=0;" vertex="1" parent="kniY7JMG2TVg29DjpVdC-186">
          <mxGeometry width="30" height="30" as="geometry" />
        </mxCell>
        <mxCell id="kniY7JMG2TVg29DjpVdC-188" value="updated_at TIMESTAMP NOT NULL" style="shape=partialRectangle;overflow=hidden;connectable=0;fillColor=none;top=0;left=0;bottom=0;right=0;align=left;spacingLeft=6;" vertex="1" parent="kniY7JMG2TVg29DjpVdC-186">
          <mxGeometry x="30" width="230" height="30" as="geometry" />
        </mxCell>
        <mxCell id="kniY7JMG2TVg29DjpVdC-189" style="shape=partialRectangle;collapsible=0;dropTarget=0;pointerEvents=0;fillColor=none;points=[[0,0.5],[1,0.5]];portConstraint=eastwest;top=0;left=0;right=0;bottom=0;" vertex="1" parent="kniY7JMG2TVg29DjpVdC-164">
          <mxGeometry y="210" width="260" height="30" as="geometry" />
        </mxCell>
        <mxCell id="kniY7JMG2TVg29DjpVdC-190" value="" style="shape=partialRectangle;overflow=hidden;connectable=0;fillColor=none;top=0;left=0;bottom=0;right=0;" vertex="1" parent="kniY7JMG2TVg29DjpVdC-189">
          <mxGeometry width="30" height="30" as="geometry" />
        </mxCell>
        <mxCell id="kniY7JMG2TVg29DjpVdC-191" value="deleted_at TIMESTAMP NOT NULL" style="shape=partialRectangle;overflow=hidden;connectable=0;fillColor=none;top=0;left=0;bottom=0;right=0;align=left;spacingLeft=6;" vertex="1" parent="kniY7JMG2TVg29DjpVdC-189">
          <mxGeometry x="30" width="230" height="30" as="geometry" />
        </mxCell>
        <mxCell id="kniY7JMG2TVg29DjpVdC-192" value="images" style="shape=table;startSize=30;container=1;collapsible=1;childLayout=tableLayout;fixedRows=1;rowLines=0;fontStyle=1;align=center;resizeLast=1;" vertex="1" parent="1">
          <mxGeometry x="680" y="470" width="290" height="250" as="geometry">
            <mxRectangle x="120" y="120" width="60" height="30" as="alternateBounds" />
          </mxGeometry>
        </mxCell>
        <mxCell id="kniY7JMG2TVg29DjpVdC-193" value="" style="shape=partialRectangle;collapsible=0;dropTarget=0;pointerEvents=0;fillColor=none;points=[[0,0.5],[1,0.5]];portConstraint=eastwest;top=0;left=0;right=0;bottom=1;" vertex="1" parent="kniY7JMG2TVg29DjpVdC-192">
          <mxGeometry y="30" width="290" height="30" as="geometry" />
        </mxCell>
        <mxCell id="kniY7JMG2TVg29DjpVdC-194" value="PK" style="shape=partialRectangle;overflow=hidden;connectable=0;fillColor=none;top=0;left=0;bottom=0;right=0;fontStyle=1;" vertex="1" parent="kniY7JMG2TVg29DjpVdC-193">
          <mxGeometry width="30" height="30" as="geometry" />
        </mxCell>
        <mxCell id="kniY7JMG2TVg29DjpVdC-195" value="id BIGINT UNSIGNEDÂ NOT NULL" style="shape=partialRectangle;overflow=hidden;connectable=0;fillColor=none;top=0;left=0;bottom=0;right=0;align=left;spacingLeft=6;fontStyle=5;" vertex="1" parent="kniY7JMG2TVg29DjpVdC-193">
          <mxGeometry x="30" width="260" height="30" as="geometry" />
        </mxCell>
        <mxCell id="kniY7JMG2TVg29DjpVdC-196" style="shape=partialRectangle;collapsible=0;dropTarget=0;pointerEvents=0;fillColor=none;points=[[0,0.5],[1,0.5]];portConstraint=eastwest;top=0;left=0;right=0;bottom=0;" vertex="1" parent="kniY7JMG2TVg29DjpVdC-192">
          <mxGeometry y="60" width="290" height="30" as="geometry" />
        </mxCell>
        <mxCell id="kniY7JMG2TVg29DjpVdC-197" value="FK1" style="shape=partialRectangle;overflow=hidden;connectable=0;fillColor=none;top=0;left=0;bottom=0;right=0;" vertex="1" parent="kniY7JMG2TVg29DjpVdC-196">
          <mxGeometry width="30" height="30" as="geometry" />
        </mxCell>
        <mxCell id="kniY7JMG2TVg29DjpVdC-198" value="imageable_id BIGINT UNSIGNED NOT NULL" style="shape=partialRectangle;overflow=hidden;connectable=0;fillColor=none;top=0;left=0;bottom=0;right=0;align=left;spacingLeft=6;" vertex="1" parent="kniY7JMG2TVg29DjpVdC-196">
          <mxGeometry x="30" width="260" height="30" as="geometry" />
        </mxCell>
        <mxCell id="kniY7JMG2TVg29DjpVdC-199" value="" style="shape=partialRectangle;collapsible=0;dropTarget=0;pointerEvents=0;fillColor=none;points=[[0,0.5],[1,0.5]];portConstraint=eastwest;top=0;left=0;right=0;bottom=0;" vertex="1" parent="kniY7JMG2TVg29DjpVdC-192">
          <mxGeometry y="90" width="290" height="30" as="geometry" />
        </mxCell>
        <mxCell id="kniY7JMG2TVg29DjpVdC-200" value="" style="shape=partialRectangle;overflow=hidden;connectable=0;fillColor=none;top=0;left=0;bottom=0;right=0;" vertex="1" parent="kniY7JMG2TVg29DjpVdC-199">
          <mxGeometry width="30" height="30" as="geometry" />
        </mxCell>
        <mxCell id="kniY7JMG2TVg29DjpVdC-201" value="imageable_type VARCHAR(255) NOT NULL" style="shape=partialRectangle;overflow=hidden;connectable=0;fillColor=none;top=0;left=0;bottom=0;right=0;align=left;spacingLeft=6;" vertex="1" parent="kniY7JMG2TVg29DjpVdC-199">
          <mxGeometry x="30" width="260" height="30" as="geometry" />
        </mxCell>
        <mxCell id="kniY7JMG2TVg29DjpVdC-202" style="shape=partialRectangle;collapsible=0;dropTarget=0;pointerEvents=0;fillColor=none;points=[[0,0.5],[1,0.5]];portConstraint=eastwest;top=0;left=0;right=0;bottom=0;" vertex="1" parent="kniY7JMG2TVg29DjpVdC-192">
          <mxGeometry y="120" width="290" height="30" as="geometry" />
        </mxCell>
        <mxCell id="kniY7JMG2TVg29DjpVdC-203" style="shape=partialRectangle;overflow=hidden;connectable=0;fillColor=none;top=0;left=0;bottom=0;right=0;" vertex="1" parent="kniY7JMG2TVg29DjpVdC-202">
          <mxGeometry width="30" height="30" as="geometry" />
        </mxCell>
        <mxCell id="kniY7JMG2TVg29DjpVdC-204" value="order TINYINT UNSIGNED NOT NULL" style="shape=partialRectangle;overflow=hidden;connectable=0;fillColor=none;top=0;left=0;bottom=0;right=0;align=left;spacingLeft=6;" vertex="1" parent="kniY7JMG2TVg29DjpVdC-202">
          <mxGeometry x="30" width="260" height="30" as="geometry" />
        </mxCell>
        <mxCell id="kniY7JMG2TVg29DjpVdC-205" style="shape=partialRectangle;collapsible=0;dropTarget=0;pointerEvents=0;fillColor=none;points=[[0,0.5],[1,0.5]];portConstraint=eastwest;top=0;left=0;right=0;bottom=0;" vertex="1" parent="kniY7JMG2TVg29DjpVdC-192">
          <mxGeometry y="150" width="290" height="30" as="geometry" />
        </mxCell>
        <mxCell id="kniY7JMG2TVg29DjpVdC-206" value="" style="shape=partialRectangle;overflow=hidden;connectable=0;fillColor=none;top=0;left=0;bottom=0;right=0;" vertex="1" parent="kniY7JMG2TVg29DjpVdC-205">
          <mxGeometry width="30" height="30" as="geometry" />
        </mxCell>
        <mxCell id="kniY7JMG2TVg29DjpVdC-207" value="created_at TIMESTAMP NOT NULL" style="shape=partialRectangle;overflow=hidden;connectable=0;fillColor=none;top=0;left=0;bottom=0;right=0;align=left;spacingLeft=6;" vertex="1" parent="kniY7JMG2TVg29DjpVdC-205">
          <mxGeometry x="30" width="260" height="30" as="geometry" />
        </mxCell>
        <mxCell id="kniY7JMG2TVg29DjpVdC-208" style="shape=partialRectangle;collapsible=0;dropTarget=0;pointerEvents=0;fillColor=none;points=[[0,0.5],[1,0.5]];portConstraint=eastwest;top=0;left=0;right=0;bottom=0;" vertex="1" parent="kniY7JMG2TVg29DjpVdC-192">
          <mxGeometry y="180" width="290" height="30" as="geometry" />
        </mxCell>
        <mxCell id="kniY7JMG2TVg29DjpVdC-209" value="" style="shape=partialRectangle;overflow=hidden;connectable=0;fillColor=none;top=0;left=0;bottom=0;right=0;" vertex="1" parent="kniY7JMG2TVg29DjpVdC-208">
          <mxGeometry width="30" height="30" as="geometry" />
        </mxCell>
        <mxCell id="kniY7JMG2TVg29DjpVdC-210" value="updated_at TIMESTAMP NOT NULL" style="shape=partialRectangle;overflow=hidden;connectable=0;fillColor=none;top=0;left=0;bottom=0;right=0;align=left;spacingLeft=6;" vertex="1" parent="kniY7JMG2TVg29DjpVdC-208">
          <mxGeometry x="30" width="260" height="30" as="geometry" />
        </mxCell>
        <mxCell id="kniY7JMG2TVg29DjpVdC-211" style="shape=partialRectangle;collapsible=0;dropTarget=0;pointerEvents=0;fillColor=none;points=[[0,0.5],[1,0.5]];portConstraint=eastwest;top=0;left=0;right=0;bottom=0;" vertex="1" parent="kniY7JMG2TVg29DjpVdC-192">
          <mxGeometry y="210" width="290" height="30" as="geometry" />
        </mxCell>
        <mxCell id="kniY7JMG2TVg29DjpVdC-212" value="" style="shape=partialRectangle;overflow=hidden;connectable=0;fillColor=none;top=0;left=0;bottom=0;right=0;" vertex="1" parent="kniY7JMG2TVg29DjpVdC-211">
          <mxGeometry width="30" height="30" as="geometry" />
        </mxCell>
        <mxCell id="kniY7JMG2TVg29DjpVdC-213" value="deleted_at TIMESTAMP NOT NULL" style="shape=partialRectangle;overflow=hidden;connectable=0;fillColor=none;top=0;left=0;bottom=0;right=0;align=left;spacingLeft=6;" vertex="1" parent="kniY7JMG2TVg29DjpVdC-211">
          <mxGeometry x="30" width="260" height="30" as="geometry" />
        </mxCell>
        <mxCell id="kniY7JMG2TVg29DjpVdC-217" style="edgeStyle=orthogonalEdgeStyle;orthogonalLoop=1;jettySize=auto;html=1;entryX=0;entryY=0.5;entryDx=0;entryDy=0;startArrow=ERone;startFill=0;endArrow=ERmany;endFill=0;" edge="1" parent="1" source="kniY7JMG2TVg29DjpVdC-174" target="xltGa2Rw6O9IPXyMZN5Q-25">
          <mxGeometry relative="1" as="geometry" />
        </mxCell>
        <mxCell id="kniY7JMG2TVg29DjpVdC-224" style="edgeStyle=orthogonalEdgeStyle;orthogonalLoop=1;jettySize=auto;html=1;startArrow=ERone;startFill=0;endArrow=ERmany;endFill=0;entryX=0;entryY=0.5;entryDx=0;entryDy=0;" edge="1" parent="1" source="kniY7JMG2TVg29DjpVdC-196" target="kniY7JMG2TVg29DjpVdC-165">
          <mxGeometry relative="1" as="geometry">
            <mxPoint x="10" y="1230" as="targetPoint" />
          </mxGeometry>
        </mxCell>
        <mxCell id="xltGa2Rw6O9IPXyMZN5Q-24" value="cities" style="shape=table;startSize=30;container=1;collapsible=1;childLayout=tableLayout;fixedRows=1;rowLines=0;fontStyle=1;align=center;resizeLast=1;" parent="1" vertex="1">
          <mxGeometry x="200" y="1070" width="260" height="310" as="geometry">
            <mxRectangle x="120" y="120" width="60" height="30" as="alternateBounds" />
          </mxGeometry>
        </mxCell>
        <mxCell id="xltGa2Rw6O9IPXyMZN5Q-25" value="" style="shape=partialRectangle;collapsible=0;dropTarget=0;pointerEvents=0;fillColor=none;points=[[0,0.5],[1,0.5]];portConstraint=eastwest;top=0;left=0;right=0;bottom=1;" parent="xltGa2Rw6O9IPXyMZN5Q-24" vertex="1">
          <mxGeometry y="30" width="260" height="30" as="geometry" />
        </mxCell>
        <mxCell id="xltGa2Rw6O9IPXyMZN5Q-26" value="PK" style="shape=partialRectangle;overflow=hidden;connectable=0;fillColor=none;top=0;left=0;bottom=0;right=0;fontStyle=1;" parent="xltGa2Rw6O9IPXyMZN5Q-25" vertex="1">
          <mxGeometry width="30" height="30" as="geometry" />
        </mxCell>
        <mxCell id="xltGa2Rw6O9IPXyMZN5Q-27" value="id BIGINT UNSIGNEDÂ NOT NULL" style="shape=partialRectangle;overflow=hidden;connectable=0;fillColor=none;top=0;left=0;bottom=0;right=0;align=left;spacingLeft=6;fontStyle=5;" parent="xltGa2Rw6O9IPXyMZN5Q-25" vertex="1">
          <mxGeometry x="30" width="230" height="30" as="geometry" />
        </mxCell>
        <mxCell id="xltGa2Rw6O9IPXyMZN5Q-31" value="" style="shape=partialRectangle;collapsible=0;dropTarget=0;pointerEvents=0;fillColor=none;points=[[0,0.5],[1,0.5]];portConstraint=eastwest;top=0;left=0;right=0;bottom=0;" parent="xltGa2Rw6O9IPXyMZN5Q-24" vertex="1">
          <mxGeometry y="60" width="260" height="30" as="geometry" />
        </mxCell>
        <mxCell id="xltGa2Rw6O9IPXyMZN5Q-32" value="FK1" style="shape=partialRectangle;overflow=hidden;connectable=0;fillColor=none;top=0;left=0;bottom=0;right=0;" parent="xltGa2Rw6O9IPXyMZN5Q-31" vertex="1">
          <mxGeometry width="30" height="30" as="geometry" />
        </mxCell>
        <mxCell id="xltGa2Rw6O9IPXyMZN5Q-33" value="state_id UNSIGNED BIGINT NOT NULL" style="shape=partialRectangle;overflow=hidden;connectable=0;fillColor=none;top=0;left=0;bottom=0;right=0;align=left;spacingLeft=6;" parent="xltGa2Rw6O9IPXyMZN5Q-31" vertex="1">
          <mxGeometry x="30" width="230" height="30" as="geometry" />
        </mxCell>
        <mxCell id="xltGa2Rw6O9IPXyMZN5Q-28" style="shape=partialRectangle;collapsible=0;dropTarget=0;pointerEvents=0;fillColor=none;points=[[0,0.5],[1,0.5]];portConstraint=eastwest;top=0;left=0;right=0;bottom=0;" parent="xltGa2Rw6O9IPXyMZN5Q-24" vertex="1">
          <mxGeometry y="90" width="260" height="30" as="geometry" />
        </mxCell>
        <mxCell id="xltGa2Rw6O9IPXyMZN5Q-29" style="shape=partialRectangle;overflow=hidden;connectable=0;fillColor=none;top=0;left=0;bottom=0;right=0;" parent="xltGa2Rw6O9IPXyMZN5Q-28" vertex="1">
          <mxGeometry width="30" height="30" as="geometry" />
        </mxCell>
        <mxCell id="xltGa2Rw6O9IPXyMZN5Q-30" value="name VARCHAR(255) NOT NULL" style="shape=partialRectangle;overflow=hidden;connectable=0;fillColor=none;top=0;left=0;bottom=0;right=0;align=left;spacingLeft=6;" parent="xltGa2Rw6O9IPXyMZN5Q-28" vertex="1">
          <mxGeometry x="30" width="230" height="30" as="geometry" />
        </mxCell>
        <mxCell id="xltGa2Rw6O9IPXyMZN5Q-34" style="shape=partialRectangle;collapsible=0;dropTarget=0;pointerEvents=0;fillColor=none;points=[[0,0.5],[1,0.5]];portConstraint=eastwest;top=0;left=0;right=0;bottom=0;" parent="xltGa2Rw6O9IPXyMZN5Q-24" vertex="1">
          <mxGeometry y="120" width="260" height="30" as="geometry" />
        </mxCell>
        <mxCell id="xltGa2Rw6O9IPXyMZN5Q-35" style="shape=partialRectangle;overflow=hidden;connectable=0;fillColor=none;top=0;left=0;bottom=0;right=0;" parent="xltGa2Rw6O9IPXyMZN5Q-34" vertex="1">
          <mxGeometry width="30" height="30" as="geometry" />
        </mxCell>
        <mxCell id="xltGa2Rw6O9IPXyMZN5Q-36" value="capital BOOLEAN NOT NULL" style="shape=partialRectangle;overflow=hidden;connectable=0;fillColor=none;top=0;left=0;bottom=0;right=0;align=left;spacingLeft=6;" parent="xltGa2Rw6O9IPXyMZN5Q-34" vertex="1">
          <mxGeometry x="30" width="230" height="30" as="geometry" />
        </mxCell>
        <mxCell id="xltGa2Rw6O9IPXyMZN5Q-37" style="shape=partialRectangle;collapsible=0;dropTarget=0;pointerEvents=0;fillColor=none;points=[[0,0.5],[1,0.5]];portConstraint=eastwest;top=0;left=0;right=0;bottom=0;" parent="xltGa2Rw6O9IPXyMZN5Q-24" vertex="1">
          <mxGeometry y="150" width="260" height="30" as="geometry" />
        </mxCell>
        <mxCell id="xltGa2Rw6O9IPXyMZN5Q-38" style="shape=partialRectangle;overflow=hidden;connectable=0;fillColor=none;top=0;left=0;bottom=0;right=0;" parent="xltGa2Rw6O9IPXyMZN5Q-37" vertex="1">
          <mxGeometry width="30" height="30" as="geometry" />
        </mxCell>
        <mxCell id="xltGa2Rw6O9IPXyMZN5Q-39" value="latitude FLOAT(8) NOT NULL" style="shape=partialRectangle;overflow=hidden;connectable=0;fillColor=none;top=0;left=0;bottom=0;right=0;align=left;spacingLeft=6;" parent="xltGa2Rw6O9IPXyMZN5Q-37" vertex="1">
          <mxGeometry x="30" width="230" height="30" as="geometry" />
        </mxCell>
        <mxCell id="xltGa2Rw6O9IPXyMZN5Q-40" style="shape=partialRectangle;collapsible=0;dropTarget=0;pointerEvents=0;fillColor=none;points=[[0,0.5],[1,0.5]];portConstraint=eastwest;top=0;left=0;right=0;bottom=0;" parent="xltGa2Rw6O9IPXyMZN5Q-24" vertex="1">
          <mxGeometry y="180" width="260" height="30" as="geometry" />
        </mxCell>
        <mxCell id="xltGa2Rw6O9IPXyMZN5Q-41" style="shape=partialRectangle;overflow=hidden;connectable=0;fillColor=none;top=0;left=0;bottom=0;right=0;" parent="xltGa2Rw6O9IPXyMZN5Q-40" vertex="1">
          <mxGeometry width="30" height="30" as="geometry" />
        </mxCell>
        <mxCell id="xltGa2Rw6O9IPXyMZN5Q-42" value="longitude FLOAT(8) NOT NULL" style="shape=partialRectangle;overflow=hidden;connectable=0;fillColor=none;top=0;left=0;bottom=0;right=0;align=left;spacingLeft=6;" parent="xltGa2Rw6O9IPXyMZN5Q-40" vertex="1">
          <mxGeometry x="30" width="230" height="30" as="geometry" />
        </mxCell>
        <mxCell id="xltGa2Rw6O9IPXyMZN5Q-90" style="shape=partialRectangle;collapsible=0;dropTarget=0;pointerEvents=0;fillColor=none;points=[[0,0.5],[1,0.5]];portConstraint=eastwest;top=0;left=0;right=0;bottom=0;" parent="xltGa2Rw6O9IPXyMZN5Q-24" vertex="1">
          <mxGeometry y="210" width="260" height="30" as="geometry" />
        </mxCell>
        <mxCell id="xltGa2Rw6O9IPXyMZN5Q-91" value="" style="shape=partialRectangle;overflow=hidden;connectable=0;fillColor=none;top=0;left=0;bottom=0;right=0;" parent="xltGa2Rw6O9IPXyMZN5Q-90" vertex="1">
          <mxGeometry width="30" height="30" as="geometry" />
        </mxCell>
        <mxCell id="xltGa2Rw6O9IPXyMZN5Q-92" value="created_at TIMESTAMP NOT NULL" style="shape=partialRectangle;overflow=hidden;connectable=0;fillColor=none;top=0;left=0;bottom=0;right=0;align=left;spacingLeft=6;" parent="xltGa2Rw6O9IPXyMZN5Q-90" vertex="1">
          <mxGeometry x="30" width="230" height="30" as="geometry" />
        </mxCell>
        <mxCell id="xltGa2Rw6O9IPXyMZN5Q-93" style="shape=partialRectangle;collapsible=0;dropTarget=0;pointerEvents=0;fillColor=none;points=[[0,0.5],[1,0.5]];portConstraint=eastwest;top=0;left=0;right=0;bottom=0;" parent="xltGa2Rw6O9IPXyMZN5Q-24" vertex="1">
          <mxGeometry y="240" width="260" height="30" as="geometry" />
        </mxCell>
        <mxCell id="xltGa2Rw6O9IPXyMZN5Q-94" value="" style="shape=partialRectangle;overflow=hidden;connectable=0;fillColor=none;top=0;left=0;bottom=0;right=0;" parent="xltGa2Rw6O9IPXyMZN5Q-93" vertex="1">
          <mxGeometry width="30" height="30" as="geometry" />
        </mxCell>
        <mxCell id="xltGa2Rw6O9IPXyMZN5Q-95" value="updated_at TIMESTAMP NOT NULL" style="shape=partialRectangle;overflow=hidden;connectable=0;fillColor=none;top=0;left=0;bottom=0;right=0;align=left;spacingLeft=6;" parent="xltGa2Rw6O9IPXyMZN5Q-93" vertex="1">
          <mxGeometry x="30" width="230" height="30" as="geometry" />
        </mxCell>
        <mxCell id="xltGa2Rw6O9IPXyMZN5Q-134" style="shape=partialRectangle;collapsible=0;dropTarget=0;pointerEvents=0;fillColor=none;points=[[0,0.5],[1,0.5]];portConstraint=eastwest;top=0;left=0;right=0;bottom=0;" parent="xltGa2Rw6O9IPXyMZN5Q-24" vertex="1">
          <mxGeometry y="270" width="260" height="30" as="geometry" />
        </mxCell>
        <mxCell id="xltGa2Rw6O9IPXyMZN5Q-135" value="" style="shape=partialRectangle;overflow=hidden;connectable=0;fillColor=none;top=0;left=0;bottom=0;right=0;" parent="xltGa2Rw6O9IPXyMZN5Q-134" vertex="1">
          <mxGeometry width="30" height="30" as="geometry" />
        </mxCell>
        <mxCell id="xltGa2Rw6O9IPXyMZN5Q-136" value="deleted_at TIMESTAMP NOT NULL" style="shape=partialRectangle;overflow=hidden;connectable=0;fillColor=none;top=0;left=0;bottom=0;right=0;align=left;spacingLeft=6;" parent="xltGa2Rw6O9IPXyMZN5Q-134" vertex="1">
          <mxGeometry x="30" width="230" height="30" as="geometry" />
        </mxCell>
        <mxCell id="kniY7JMG2TVg29DjpVdC-227" style="edgeStyle=orthogonalEdgeStyle;orthogonalLoop=1;jettySize=auto;html=1;entryX=0;entryY=0.5;entryDx=0;entryDy=0;startArrow=ERone;startFill=0;endArrow=ERmany;endFill=0;" edge="1" parent="1" source="kniY7JMG2TVg29DjpVdC-165" target="xltGa2Rw6O9IPXyMZN5Q-24">
          <mxGeometry relative="1" as="geometry">
            <mxPoint x="60" y="595" as="sourcePoint" />
            <mxPoint x="616" y="1050.9999999999995" as="targetPoint" />
            <Array as="points">
              <mxPoint x="60" y="1111" />
              <mxPoint x="60" y="1191" />
            </Array>
          </mxGeometry>
        </mxCell>
        <mxCell id="kniY7JMG2TVg29DjpVdC-229" style="edgeStyle=orthogonalEdgeStyle;rounded=0;orthogonalLoop=1;jettySize=auto;html=1;" edge="1" parent="1" source="kniY7JMG2TVg29DjpVdC-218" target="kniY7JMG2TVg29DjpVdC-165">
          <mxGeometry relative="1" as="geometry" />
        </mxCell>
        <mxCell id="kniY7JMG2TVg29DjpVdC-233" style="edgeStyle=orthogonalEdgeStyle;rounded=0;orthogonalLoop=1;jettySize=auto;html=1;" edge="1" parent="1" source="kniY7JMG2TVg29DjpVdC-196" target="xltGa2Rw6O9IPXyMZN5Q-25">
          <mxGeometry relative="1" as="geometry" />
        </mxCell>
        <mxCell id="kniY7JMG2TVg29DjpVdC-234" style="edgeStyle=orthogonalEdgeStyle;rounded=0;orthogonalLoop=1;jettySize=auto;html=1;entryX=0;entryY=0.5;entryDx=0;entryDy=0;" edge="1" parent="1" source="kniY7JMG2TVg29DjpVdC-75" target="xltGa2Rw6O9IPXyMZN5Q-25">
          <mxGeometry relative="1" as="geometry" />
        </mxCell>
        <mxCell id="kniY7JMG2TVg29DjpVdC-238" style="edgeStyle=orthogonalEdgeStyle;rounded=0;orthogonalLoop=1;jettySize=auto;html=1;" edge="1" parent="1" source="kniY7JMG2TVg29DjpVdC-140" target="C-vyLk0tnHw3VtMMgP7b-24">
          <mxGeometry relative="1" as="geometry">
            <Array as="points">
              <mxPoint x="170" y="775" />
              <mxPoint x="170" y="-145" />
            </Array>
          </mxGeometry>
        </mxCell>
        <mxCell id="kniY7JMG2TVg29DjpVdC-239" style="edgeStyle=orthogonalEdgeStyle;rounded=0;orthogonalLoop=1;jettySize=auto;html=1;entryX=0;entryY=0.5;entryDx=0;entryDy=0;" edge="1" parent="1" source="kniY7JMG2TVg29DjpVdC-106" target="C-vyLk0tnHw3VtMMgP7b-24">
          <mxGeometry relative="1" as="geometry">
            <Array as="points">
              <mxPoint x="200" y="265" />
              <mxPoint x="200" y="60" />
              <mxPoint x="300" y="60" />
              <mxPoint x="300" y="-145" />
            </Array>
          </mxGeometry>
        </mxCell>
        <mxCell id="kniY7JMG2TVg29DjpVdC-241" style="edgeStyle=orthogonalEdgeStyle;rounded=0;orthogonalLoop=1;jettySize=auto;html=1;entryX=0;entryY=0.5;entryDx=0;entryDy=0;" edge="1" parent="1" source="kniY7JMG2TVg29DjpVdC-5" target="kniY7JMG2TVg29DjpVdC-41">
          <mxGeometry relative="1" as="geometry" />
        </mxCell>
      </root>
    </mxGraphModel>
  </diagram>
</mxfile>
